<svg width="316" height="77" viewBox="0 0 316 77" fill="none" xmlns="http://www.w3.org/2000/svg">
<rect x="54" y="4" width="208" height="73" fill="#D9D9D9"/>
<ellipse cx="262" cy="41" rx="40" ry="36" fill="#D9D9D9"/>
<ellipse cx="54" cy="41" rx="40" ry="36" fill="#D9D9D9"/>
<path d="M59.9975 31.8182H63.3267L69.1151 45.9517H69.3281L75.1165 31.8182H78.4457V50H75.8356V36.843H75.6669L70.3047 49.9734H68.1385L62.7763 36.8342H62.6076V50H59.9975V31.8182ZM87.9649 50.2752C86.6865 50.2752 85.5709 49.9822 84.618 49.3963C83.6651 48.8104 82.9253 47.9906 82.3985 46.9371C81.8718 45.8836 81.6084 44.6526 81.6084 43.244C81.6084 41.8294 81.8718 40.5924 82.3985 39.533C82.9253 38.4736 83.6651 37.6509 84.618 37.065C85.5709 36.479 86.6865 36.1861 87.9649 36.1861C89.2433 36.1861 90.359 36.479 91.3119 37.065C92.2648 37.6509 93.0046 38.4736 93.5313 39.533C94.0581 40.5924 94.3215 41.8294 94.3215 43.244C94.3215 44.6526 94.0581 45.8836 93.5313 46.9371C93.0046 47.9906 92.2648 48.8104 91.3119 49.3963C90.359 49.9822 89.2433 50.2752 87.9649 50.2752ZM87.9738 48.0469C88.8024 48.0469 89.489 47.8279 90.0335 47.3899C90.578 46.9519 90.9804 46.369 91.2409 45.641C91.5072 44.913 91.6404 44.111 91.6404 43.2351C91.6404 42.3651 91.5072 41.5661 91.2409 40.8381C90.9804 40.1042 90.578 39.5153 90.0335 39.0714C89.489 38.6275 88.8024 38.4055 87.9738 38.4055C87.1393 38.4055 86.4468 38.6275 85.8964 39.0714C85.3519 39.5153 84.9465 40.1042 84.6801 40.8381C84.4197 41.5661 84.2895 42.3651 84.2895 43.2351C84.2895 44.111 84.4197 44.913 84.6801 45.641C84.9465 46.369 85.3519 46.9519 85.8964 47.3899C86.4468 47.8279 87.1393 48.0469 87.9738 48.0469ZM97.2844 50V36.3636H99.8501V38.5298H99.9922C100.241 37.7959 100.679 37.2189 101.306 36.7987C101.939 36.3725 102.656 36.1594 103.455 36.1594C103.62 36.1594 103.816 36.1654 104.04 36.1772C104.271 36.189 104.452 36.2038 104.582 36.2216V38.7607C104.475 38.7311 104.286 38.6985 104.014 38.663C103.742 38.6216 103.469 38.6009 103.197 38.6009C102.57 38.6009 102.01 38.734 101.519 39.0004C101.034 39.2608 100.649 39.6248 100.365 40.0923C100.081 40.554 99.9389 41.0807 99.9389 41.6726V50H97.2844ZM112.268 50.2752C110.925 50.2752 109.767 49.9882 108.797 49.4141C107.832 48.834 107.086 48.0202 106.56 46.9727C106.039 45.9192 105.778 44.6851 105.778 43.2706C105.778 41.8738 106.039 40.6428 106.56 39.5774C107.086 38.5121 107.82 37.6805 108.761 37.0827C109.708 36.485 110.815 36.1861 112.082 36.1861C112.851 36.1861 113.597 36.3133 114.319 36.5678C115.041 36.8223 115.689 37.2218 116.263 37.7663C116.837 38.3108 117.29 39.0181 117.621 39.8881C117.953 40.7522 118.119 41.8028 118.119 43.0398V43.9808H107.279V41.9922H115.517C115.517 41.2938 115.375 40.6753 115.091 40.1367C114.807 39.5922 114.408 39.1631 113.893 38.8494C113.384 38.5357 112.786 38.3789 112.099 38.3789C111.354 38.3789 110.703 38.5624 110.146 38.9293C109.596 39.2904 109.17 39.7638 108.868 40.3498C108.572 40.9298 108.424 41.5601 108.424 42.2408V43.7944C108.424 44.7058 108.584 45.4812 108.903 46.1204C109.229 46.7596 109.682 47.2479 110.262 47.5852C110.842 47.9167 111.519 48.0824 112.295 48.0824C112.798 48.0824 113.256 48.0114 113.671 47.8693C114.085 47.7214 114.443 47.5024 114.745 47.2124C115.047 46.9223 115.278 46.5643 115.437 46.1381L117.95 46.5909C117.749 47.3307 117.388 47.9788 116.867 48.5352C116.352 49.0856 115.704 49.5147 114.922 49.8224C114.147 50.1243 113.262 50.2752 112.268 50.2752ZM127.68 50V36.3636H130.334V50H127.68ZM129.021 34.2596C128.559 34.2596 128.162 34.1057 127.831 33.7979C127.505 33.4843 127.343 33.1114 127.343 32.6793C127.343 32.2414 127.505 31.8685 127.831 31.5607C128.162 31.247 128.559 31.0902 129.021 31.0902C129.482 31.0902 129.876 31.247 130.201 31.5607C130.533 31.8685 130.698 32.2414 130.698 32.6793C130.698 33.1114 130.533 33.4843 130.201 33.7979C129.876 34.1057 129.482 34.2596 129.021 34.2596ZM136.56 41.9034V50H133.906V36.3636H136.453V38.5831H136.622C136.936 37.861 137.427 37.281 138.096 36.843C138.771 36.4051 139.62 36.1861 140.644 36.1861C141.573 36.1861 142.387 36.3814 143.085 36.772C143.784 37.1567 144.325 37.7308 144.71 38.4943C145.095 39.2578 145.287 40.2018 145.287 41.3263V50H142.632V41.646C142.632 40.6576 142.375 39.8852 141.86 39.3288C141.345 38.7666 140.638 38.4854 139.738 38.4854C139.123 38.4854 138.575 38.6186 138.096 38.8849C137.622 39.1513 137.247 39.5419 136.968 40.0568C136.696 40.5658 136.56 41.1813 136.56 41.9034ZM155.337 36.3636V38.4943H147.631V36.3636H155.337ZM149.744 50V34.7834C149.744 33.9311 149.93 33.2238 150.303 32.6616C150.676 32.0934 151.17 31.6702 151.786 31.392C152.401 31.108 153.07 30.9659 153.792 30.9659C154.325 30.9659 154.78 31.0103 155.159 31.0991C155.538 31.1819 155.819 31.2589 156.002 31.3299L155.381 33.4783C155.257 33.4428 155.097 33.4014 154.902 33.354C154.706 33.3008 154.47 33.2741 154.191 33.2741C153.546 33.2741 153.085 33.4339 152.806 33.7536C152.534 34.0732 152.398 34.5348 152.398 35.1385V50H149.744ZM163.282 50.2752C162.004 50.2752 160.888 49.9822 159.935 49.3963C158.982 48.8104 158.243 47.9906 157.716 46.9371C157.189 45.8836 156.926 44.6526 156.926 43.244C156.926 41.8294 157.189 40.5924 157.716 39.533C158.243 38.4736 158.982 37.6509 159.935 37.065C160.888 36.479 162.004 36.1861 163.282 36.1861C164.561 36.1861 165.676 36.479 166.629 37.065C167.582 37.6509 168.322 38.4736 168.849 39.533C169.375 40.5924 169.639 41.8294 169.639 43.244C169.639 44.6526 169.375 45.8836 168.849 46.9371C168.322 47.9906 167.582 48.8104 166.629 49.3963C165.676 49.9822 164.561 50.2752 163.282 50.2752ZM163.291 48.0469C164.12 48.0469 164.806 47.8279 165.351 47.3899C165.895 46.9519 166.298 46.369 166.558 45.641C166.825 44.913 166.958 44.111 166.958 43.2351C166.958 42.3651 166.825 41.5661 166.558 40.8381C166.298 40.1042 165.895 39.5153 165.351 39.0714C164.806 38.6275 164.12 38.4055 163.291 38.4055C162.457 38.4055 161.764 38.6275 161.214 39.0714C160.669 39.5153 160.264 40.1042 159.998 40.8381C159.737 41.5661 159.607 42.3651 159.607 43.2351C159.607 44.111 159.737 44.913 159.998 45.641C160.264 46.369 160.669 46.9519 161.214 47.3899C161.764 47.8279 162.457 48.0469 163.291 48.0469ZM172.602 50V36.3636H175.168V38.5298H175.31C175.558 37.7959 175.996 37.2189 176.623 36.7987C177.257 36.3725 177.973 36.1594 178.772 36.1594C178.938 36.1594 179.133 36.1654 179.358 36.1772C179.589 36.189 179.769 36.2038 179.899 36.2216V38.7607C179.793 38.7311 179.603 38.6985 179.331 38.663C179.059 38.6216 178.787 38.6009 178.514 38.6009C177.887 38.6009 177.328 38.734 176.837 39.0004C176.351 39.2608 175.967 39.6248 175.682 40.0923C175.398 40.554 175.256 41.0807 175.256 41.6726V50H172.602ZM182.197 50V36.3636H184.744V38.5831H184.913C185.197 37.8314 185.662 37.2455 186.307 36.8253C186.952 36.3991 187.724 36.1861 188.624 36.1861C189.536 36.1861 190.299 36.3991 190.915 36.8253C191.536 37.2514 191.995 37.8374 192.291 38.5831H192.433C192.758 37.8551 193.276 37.2751 193.986 36.843C194.697 36.4051 195.543 36.1861 196.525 36.1861C197.762 36.1861 198.771 36.5737 199.553 37.3491C200.34 38.1244 200.733 39.2933 200.733 40.8558V50H198.079V41.1044C198.079 40.1811 197.827 39.5123 197.324 39.098C196.821 38.6837 196.221 38.4766 195.522 38.4766C194.658 38.4766 193.986 38.7429 193.507 39.2756C193.028 39.8023 192.788 40.48 192.788 41.3086V50H190.142V40.9357C190.142 40.1959 189.911 39.6011 189.45 39.1513C188.988 38.7015 188.387 38.4766 187.648 38.4766C187.144 38.4766 186.68 38.6097 186.254 38.8761C185.834 39.1365 185.493 39.5005 185.233 39.968C184.978 40.4356 184.851 40.9772 184.851 41.5927V50H182.197ZM208.26 50.3018C207.396 50.3018 206.614 50.142 205.916 49.8224C205.218 49.4969 204.664 49.0264 204.256 48.4109C203.853 47.7953 203.652 47.0407 203.652 46.147C203.652 45.3776 203.8 44.7443 204.096 44.2472C204.392 43.75 204.791 43.3564 205.294 43.0664C205.798 42.7764 206.36 42.5574 206.981 42.4094C207.603 42.2615 208.236 42.149 208.881 42.0721C209.698 41.9774 210.361 41.9004 210.87 41.8413C211.379 41.7762 211.749 41.6726 211.979 41.5305C212.21 41.3885 212.326 41.1577 212.326 40.8381V40.7759C212.326 40.0006 212.107 39.3999 211.669 38.9737C211.237 38.5476 210.592 38.3345 209.733 38.3345C208.84 38.3345 208.135 38.5328 207.62 38.9293C207.111 39.32 206.759 39.755 206.564 40.2344L204.069 39.6662C204.365 38.8376 204.797 38.1688 205.366 37.6598C205.94 37.1449 206.6 36.772 207.345 36.5412C208.091 36.3045 208.875 36.1861 209.698 36.1861C210.242 36.1861 210.819 36.2512 211.429 36.3814C212.045 36.5057 212.619 36.7365 213.151 37.0739C213.69 37.4112 214.131 37.8936 214.474 38.521C214.817 39.1424 214.989 39.9503 214.989 40.9446V50H212.397V48.1357H212.29C212.119 48.4789 211.861 48.8163 211.518 49.1477C211.175 49.4792 210.734 49.7544 210.195 49.9734C209.656 50.1924 209.011 50.3018 208.26 50.3018ZM208.837 48.1712C209.571 48.1712 210.198 48.0262 210.719 47.7362C211.246 47.4461 211.645 47.0674 211.917 46.5998C212.196 46.1263 212.335 45.6203 212.335 45.0817V43.3239C212.24 43.4186 212.056 43.5073 211.784 43.5902C211.518 43.6671 211.213 43.7352 210.87 43.7944C210.526 43.8477 210.192 43.898 209.867 43.9453C209.541 43.9867 209.269 44.0223 209.05 44.0518C208.535 44.117 208.064 44.2264 207.638 44.3803C207.218 44.5342 206.881 44.7562 206.626 45.0462C206.378 45.3303 206.253 45.709 206.253 46.1825C206.253 46.8395 206.496 47.3366 206.981 47.674C207.467 48.0054 208.085 48.1712 208.837 48.1712ZM224.89 36.3636V38.4943H217.442V36.3636H224.89ZM219.439 33.0966H222.094V45.9961C222.094 46.511 222.171 46.8987 222.324 47.1591C222.478 47.4136 222.677 47.5882 222.919 47.6829C223.168 47.7717 223.437 47.8161 223.727 47.8161C223.94 47.8161 224.127 47.8013 224.286 47.7717C224.446 47.7421 224.57 47.7184 224.659 47.7006L225.139 49.8935C224.985 49.9527 224.766 50.0118 224.482 50.071C224.198 50.1361 223.843 50.1716 223.416 50.1776C222.718 50.1894 222.067 50.0651 221.463 49.8047C220.86 49.5443 220.371 49.1418 219.998 48.5973C219.626 48.0528 219.439 47.3692 219.439 46.5465V33.0966ZM227.826 50V36.3636H230.481V50H227.826ZM229.167 34.2596C228.705 34.2596 228.309 34.1057 227.977 33.7979C227.652 33.4843 227.489 33.1114 227.489 32.6793C227.489 32.2414 227.652 31.8685 227.977 31.5607C228.309 31.247 228.705 31.0902 229.167 31.0902C229.629 31.0902 230.022 31.247 230.348 31.5607C230.679 31.8685 230.845 32.2414 230.845 32.6793C230.845 33.1114 230.679 33.4843 230.348 33.7979C230.022 34.1057 229.629 34.2596 229.167 34.2596ZM239.796 50.2752C238.518 50.2752 237.402 49.9822 236.449 49.3963C235.496 48.8104 234.756 47.9906 234.23 46.9371C233.703 45.8836 233.439 44.6526 233.439 43.244C233.439 41.8294 233.703 40.5924 234.23 39.533C234.756 38.4736 235.496 37.6509 236.449 37.065C237.402 36.479 238.518 36.1861 239.796 36.1861C241.074 36.1861 242.19 36.479 243.143 37.065C244.096 37.6509 244.836 38.4736 245.362 39.533C245.889 40.5924 246.153 41.8294 246.153 43.244C246.153 44.6526 245.889 45.8836 245.362 46.9371C244.836 47.9906 244.096 48.8104 243.143 49.3963C242.19 49.9822 241.074 50.2752 239.796 50.2752ZM239.805 48.0469C240.633 48.0469 241.32 47.8279 241.865 47.3899C242.409 46.9519 242.811 46.369 243.072 45.641C243.338 44.913 243.471 44.111 243.471 43.2351C243.471 42.3651 243.338 41.5661 243.072 40.8381C242.811 40.1042 242.409 39.5153 241.865 39.0714C241.32 38.6275 240.633 38.4055 239.805 38.4055C238.97 38.4055 238.278 38.6275 237.727 39.0714C237.183 39.5153 236.778 40.1042 236.511 40.8381C236.251 41.5661 236.121 42.3651 236.121 43.2351C236.121 44.111 236.251 44.913 236.511 45.641C236.778 46.369 237.183 46.9519 237.727 47.3899C238.278 47.8279 238.97 48.0469 239.805 48.0469ZM251.77 41.9034V50H249.116V36.3636H251.663V38.5831H251.832C252.146 37.861 252.637 37.281 253.306 36.843C253.981 36.4051 254.83 36.1861 255.854 36.1861C256.783 36.1861 257.597 36.3814 258.295 36.772C258.994 37.1567 259.535 37.7308 259.92 38.4943C260.305 39.2578 260.497 40.2018 260.497 41.3263V50H257.842V41.646C257.842 40.6576 257.585 39.8852 257.07 39.3288C256.555 38.7666 255.848 38.4854 254.948 38.4854C254.333 38.4854 253.785 38.6186 253.306 38.8849C252.832 39.1513 252.457 39.5419 252.178 40.0568C251.906 40.5658 251.77 41.1813 251.77 41.9034Z" fill="black"/>
</svg>
