<svg width="311" height="320" viewBox="0 0 311 320" fill="none" xmlns="http://www.w3.org/2000/svg">
<path d="M6.58523 1.90909V31H2.19602V1.90909H6.58523ZM16.8835 18.0455V31H12.6364V9.18182H16.7131V12.733H16.983C17.4848 11.5777 18.2708 10.6496 19.3409 9.94886C20.4205 9.24811 21.7794 8.89773 23.4176 8.89773C24.9044 8.89773 26.2064 9.21023 27.3239 9.83523C28.4413 10.4508 29.3078 11.3693 29.9233 12.5909C30.5388 13.8125 30.8466 15.3229 30.8466 17.1222V31H26.5994V17.6335C26.5994 16.0521 26.1875 14.8163 25.3636 13.9261C24.5398 13.0265 23.4081 12.5767 21.9688 12.5767C20.9839 12.5767 20.108 12.7898 19.3409 13.2159C18.5833 13.642 17.982 14.267 17.5369 15.0909C17.1013 15.9053 16.8835 16.8902 16.8835 18.0455ZM46.7273 9.18182V12.5909H34.8097V9.18182H46.7273ZM38.0057 3.95455H42.2528V24.5938C42.2528 25.4176 42.3759 26.0379 42.6222 26.4545C42.8684 26.8617 43.1856 27.1411 43.5739 27.2926C43.9716 27.4347 44.4025 27.5057 44.8665 27.5057C45.2074 27.5057 45.5057 27.482 45.7614 27.4347C46.017 27.3873 46.2159 27.3494 46.358 27.321L47.125 30.8295C46.8788 30.9242 46.5284 31.0189 46.0739 31.1136C45.6193 31.2178 45.0511 31.2746 44.3693 31.2841C43.2519 31.303 42.2102 31.1042 41.2443 30.6875C40.2784 30.2708 39.4972 29.6269 38.9006 28.7557C38.304 27.8845 38.0057 26.7907 38.0057 25.4744V3.95455ZM51.4254 31V9.18182H55.5305V12.6477H55.7578C56.1555 11.4735 56.8563 10.5502 57.8601 9.87784C58.8733 9.19602 60.0192 8.85511 61.2976 8.85511C61.5627 8.85511 61.8752 8.86458 62.2351 8.88352C62.6044 8.90246 62.8932 8.92614 63.1016 8.95455V13.017C62.9311 12.9697 62.6281 12.9176 62.1925 12.8608C61.7569 12.7945 61.3213 12.7614 60.8857 12.7614C59.8819 12.7614 58.987 12.9744 58.201 13.4006C57.4245 13.8172 56.8089 14.3996 56.3544 15.1477C55.8999 15.8864 55.6726 16.7292 55.6726 17.6761V31H51.4254ZM75.1861 31.4403C73.1406 31.4403 71.3556 30.9716 69.831 30.0341C68.3063 29.0966 67.1226 27.785 66.2798 26.0994C65.437 24.4138 65.0156 22.4441 65.0156 20.1903C65.0156 17.9271 65.437 15.9479 66.2798 14.2528C67.1226 12.5578 68.3063 11.2415 69.831 10.304C71.3556 9.36648 73.1406 8.89773 75.1861 8.89773C77.2315 8.89773 79.0166 9.36648 80.5412 10.304C82.0658 11.2415 83.2495 12.5578 84.0923 14.2528C84.9351 15.9479 85.3565 17.9271 85.3565 20.1903C85.3565 22.4441 84.9351 24.4138 84.0923 26.0994C83.2495 27.785 82.0658 29.0966 80.5412 30.0341C79.0166 30.9716 77.2315 31.4403 75.1861 31.4403ZM75.2003 27.875C76.526 27.875 77.6245 27.5246 78.4957 26.8239C79.367 26.1231 80.0109 25.1903 80.4276 24.0256C80.8537 22.8608 81.0668 21.5777 81.0668 20.1761C81.0668 18.7841 80.8537 17.5057 80.4276 16.3409C80.0109 15.1667 79.367 14.2244 78.4957 13.5142C77.6245 12.804 76.526 12.4489 75.2003 12.4489C73.8651 12.4489 72.7571 12.804 71.8764 13.5142C71.0052 14.2244 70.3565 15.1667 69.9304 16.3409C69.5137 17.5057 69.3054 18.7841 69.3054 20.1761C69.3054 21.5777 69.5137 22.8608 69.9304 24.0256C70.3565 25.1903 71.0052 26.1231 71.8764 26.8239C72.7571 27.5246 73.8651 27.875 75.2003 27.875ZM98.2649 31.4261C96.5036 31.4261 94.9316 30.9763 93.549 30.0767C92.1759 29.1676 91.0964 27.875 90.3104 26.1989C89.5339 24.5133 89.1456 22.4915 89.1456 20.1335C89.1456 17.7756 89.5386 15.7585 90.3246 14.0824C91.12 12.4062 92.209 11.1231 93.5916 10.233C94.9742 9.3428 96.5414 8.89773 98.2933 8.89773C99.6475 8.89773 100.737 9.125 101.56 9.57955C102.394 10.0246 103.038 10.5455 103.492 11.142C103.956 11.7386 104.316 12.2642 104.572 12.7188H104.827V1.90909H109.075V31H104.927V27.6051H104.572C104.316 28.0691 103.947 28.5994 103.464 29.196C102.99 29.7926 102.337 30.3134 101.504 30.7585C100.67 31.2036 99.5907 31.4261 98.2649 31.4261ZM99.2024 27.804C100.424 27.804 101.456 27.482 102.299 26.8381C103.151 26.1847 103.795 25.2803 104.231 24.125C104.676 22.9697 104.898 21.625 104.898 20.0909C104.898 18.5758 104.681 17.25 104.245 16.1136C103.809 14.9773 103.17 14.0919 102.327 13.4574C101.485 12.8229 100.443 12.5057 99.2024 12.5057C97.924 12.5057 96.8587 12.8371 96.0064 13.5C95.1541 14.1629 94.5102 15.0672 94.0746 16.2131C93.6484 17.3589 93.4354 18.6515 93.4354 20.0909C93.4354 21.5492 93.6532 22.8608 94.0888 24.0256C94.5244 25.1903 95.1683 26.1136 96.0206 26.7955C96.8823 27.4678 97.9429 27.804 99.2024 27.804ZM128.957 21.9517V9.18182H133.219V31H129.043V27.2216H128.815C128.313 28.3864 127.509 29.357 126.401 30.1335C125.302 30.9006 123.934 31.2841 122.295 31.2841C120.894 31.2841 119.653 30.9763 118.574 30.3608C117.504 29.7358 116.661 28.8125 116.045 27.5909C115.439 26.3693 115.136 24.8589 115.136 23.0597V9.18182H119.384V22.5483C119.384 24.035 119.795 25.2187 120.619 26.0994C121.443 26.9801 122.513 27.4205 123.83 27.4205C124.625 27.4205 125.416 27.2216 126.202 26.8239C126.997 26.4261 127.655 25.8248 128.176 25.0199C128.706 24.215 128.967 23.1922 128.957 21.9517ZM148.116 31.4403C146.004 31.4403 144.186 30.9621 142.661 30.0057C141.146 29.0398 139.981 27.7093 139.167 26.0142C138.353 24.3191 137.945 22.3778 137.945 20.1903C137.945 17.9744 138.362 16.0189 139.195 14.3239C140.029 12.6193 141.203 11.2888 142.718 10.3324C144.233 9.37595 146.018 8.89773 148.073 8.89773C149.73 8.89773 151.208 9.20549 152.505 9.82102C153.802 10.4271 154.849 11.2794 155.644 12.3778C156.449 13.4763 156.927 14.7595 157.079 16.2273H152.945C152.718 15.2045 152.197 14.3239 151.383 13.5852C150.578 12.8466 149.498 12.4773 148.144 12.4773C146.96 12.4773 145.924 12.7898 145.033 13.4148C144.153 14.0303 143.466 14.911 142.974 16.0568C142.481 17.1932 142.235 18.5379 142.235 20.0909C142.235 21.6818 142.477 23.0549 142.96 24.2102C143.442 25.3655 144.124 26.2604 145.005 26.8949C145.895 27.5294 146.942 27.8466 148.144 27.8466C148.949 27.8466 149.678 27.6998 150.332 27.4062C150.995 27.1032 151.549 26.6723 151.994 26.1136C152.448 25.5549 152.765 24.8826 152.945 24.0966H157.079C156.927 25.5076 156.468 26.767 155.701 27.875C154.934 28.983 153.906 29.8542 152.619 30.4886C151.34 31.1231 149.839 31.4403 148.116 31.4403ZM171.805 9.18182V12.5909H159.888V9.18182H171.805ZM163.084 3.95455H167.331V24.5938C167.331 25.4176 167.454 26.0379 167.7 26.4545C167.946 26.8617 168.264 27.1411 168.652 27.2926C169.05 27.4347 169.481 27.5057 169.945 27.5057C170.286 27.5057 170.584 27.482 170.839 27.4347C171.095 27.3873 171.294 27.3494 171.436 27.321L172.203 30.8295C171.957 30.9242 171.607 31.0189 171.152 31.1136C170.697 31.2178 170.129 31.2746 169.447 31.2841C168.33 31.303 167.288 31.1042 166.322 30.6875C165.357 30.2708 164.575 29.6269 163.979 28.7557C163.382 27.8845 163.084 26.7907 163.084 25.4744V3.95455ZM176.504 31V9.18182H180.751V31H176.504ZM178.648 5.81534C177.91 5.81534 177.275 5.56913 176.745 5.0767C176.224 4.57481 175.964 3.97822 175.964 3.28693C175.964 2.58617 176.224 1.98958 176.745 1.49716C177.275 0.995264 177.91 0.744318 178.648 0.744318C179.387 0.744318 180.017 0.995264 180.538 1.49716C181.068 1.98958 181.333 2.58617 181.333 3.28693C181.333 3.97822 181.068 4.57481 180.538 5.0767C180.017 5.56913 179.387 5.81534 178.648 5.81534ZM195.655 31.4403C193.609 31.4403 191.824 30.9716 190.3 30.0341C188.775 29.0966 187.591 27.785 186.749 26.0994C185.906 24.4138 185.484 22.4441 185.484 20.1903C185.484 17.9271 185.906 15.9479 186.749 14.2528C187.591 12.5578 188.775 11.2415 190.3 10.304C191.824 9.36648 193.609 8.89773 195.655 8.89773C197.7 8.89773 199.485 9.36648 201.01 10.304C202.535 11.2415 203.718 12.5578 204.561 14.2528C205.404 15.9479 205.825 17.9271 205.825 20.1903C205.825 22.4441 205.404 24.4138 204.561 26.0994C203.718 27.785 202.535 29.0966 201.01 30.0341C199.485 30.9716 197.7 31.4403 195.655 31.4403ZM195.669 27.875C196.995 27.875 198.093 27.5246 198.964 26.8239C199.836 26.1231 200.48 25.1903 200.896 24.0256C201.322 22.8608 201.536 21.5777 201.536 20.1761C201.536 18.7841 201.322 17.5057 200.896 16.3409C200.48 15.1667 199.836 14.2244 198.964 13.5142C198.093 12.804 196.995 12.4489 195.669 12.4489C194.334 12.4489 193.226 12.804 192.345 13.5142C191.474 14.2244 190.825 15.1667 190.399 16.3409C189.982 17.5057 189.774 18.7841 189.774 20.1761C189.774 21.5777 189.982 22.8608 190.399 24.0256C190.825 25.1903 191.474 26.1231 192.345 26.8239C193.226 27.5246 194.334 27.875 195.669 27.875ZM214.813 18.0455V31H210.566V9.18182H214.643V12.733H214.913C215.415 11.5777 216.201 10.6496 217.271 9.94886C218.35 9.24811 219.709 8.89773 221.347 8.89773C222.834 8.89773 224.136 9.21023 225.254 9.83523C226.371 10.4508 227.237 11.3693 227.853 12.5909C228.469 13.8125 228.776 15.3229 228.776 17.1222V31H224.529V17.6335C224.529 16.0521 224.117 14.8163 223.293 13.9261C222.469 13.0265 221.338 12.5767 219.898 12.5767C218.914 12.5767 218.038 12.7898 217.271 13.2159C216.513 13.642 215.912 14.267 215.467 15.0909C215.031 15.9053 214.813 16.8902 214.813 18.0455ZM251.408 31.483C250.025 31.483 248.775 31.2273 247.658 30.7159C246.54 30.1951 245.655 29.4422 245.001 28.4574C244.357 27.4725 244.036 26.2652 244.036 24.8352C244.036 23.6042 244.272 22.5909 244.746 21.7955C245.219 21 245.858 20.3703 246.663 19.9062C247.468 19.4422 248.368 19.0919 249.362 18.8551C250.357 18.6184 251.37 18.4384 252.402 18.3153C253.709 18.1638 254.769 18.0407 255.584 17.946C256.398 17.8419 256.99 17.6761 257.359 17.4489C257.729 17.2216 257.913 16.8523 257.913 16.3409V16.2415C257.913 15.0009 257.563 14.0398 256.862 13.358C256.171 12.6761 255.139 12.3352 253.766 12.3352C252.336 12.3352 251.209 12.6525 250.385 13.2869C249.571 13.9119 249.007 14.608 248.695 15.375L244.703 14.4659C245.177 13.1402 245.868 12.0701 246.777 11.2557C247.696 10.4318 248.751 9.83523 249.945 9.46591C251.138 9.08712 252.393 8.89773 253.709 8.89773C254.58 8.89773 255.503 9.00189 256.479 9.21023C257.464 9.40909 258.382 9.77841 259.234 10.3182C260.096 10.858 260.802 11.6297 261.351 12.6335C261.9 13.6278 262.175 14.9205 262.175 16.5114V31H258.027V28.017H257.857C257.582 28.5663 257.17 29.1061 256.621 29.6364C256.071 30.1667 255.366 30.607 254.504 30.9574C253.643 31.3078 252.61 31.483 251.408 31.483ZM252.331 28.0739C253.505 28.0739 254.509 27.8419 255.342 27.3778C256.185 26.9138 256.824 26.3078 257.26 25.5597C257.705 24.8021 257.928 23.9924 257.928 23.1307V20.3182C257.776 20.4697 257.482 20.6117 257.047 20.7443C256.621 20.8674 256.133 20.9763 255.584 21.071C255.035 21.1562 254.5 21.2367 253.979 21.3125C253.458 21.3788 253.022 21.4356 252.672 21.483C251.848 21.5871 251.095 21.7623 250.413 22.0085C249.741 22.2547 249.201 22.6098 248.794 23.0739C248.396 23.5284 248.197 24.1345 248.197 24.892C248.197 25.9432 248.586 26.7386 249.362 27.2784C250.139 27.8087 251.128 28.0739 252.331 28.0739ZM272.079 18.0455V31H267.832V9.18182H271.908V12.733H272.178C272.68 11.5777 273.466 10.6496 274.536 9.94886C275.616 9.24811 276.975 8.89773 278.613 8.89773C280.1 8.89773 281.402 9.21023 282.519 9.83523C283.637 10.4508 284.503 11.3693 285.119 12.5909C285.734 13.8125 286.042 15.3229 286.042 17.1222V31H281.795V17.6335C281.795 16.0521 281.383 14.8163 280.559 13.9261C279.735 13.0265 278.603 12.5767 277.164 12.5767C276.179 12.5767 275.303 12.7898 274.536 13.2159C273.779 13.642 273.177 14.267 272.732 15.0909C272.297 15.9053 272.079 16.8902 272.079 18.0455ZM299.906 31.4261C298.144 31.4261 296.572 30.9763 295.19 30.0767C293.817 29.1676 292.737 27.875 291.951 26.1989C291.174 24.5133 290.786 22.4915 290.786 20.1335C290.786 17.7756 291.179 15.7585 291.965 14.0824C292.761 12.4062 293.85 11.1231 295.232 10.233C296.615 9.3428 298.182 8.89773 299.934 8.89773C301.288 8.89773 302.377 9.125 303.201 9.57955C304.034 10.0246 304.678 10.5455 305.133 11.142C305.597 11.7386 305.957 12.2642 306.212 12.7188H306.468V1.90909H310.715V31H306.567V27.6051H306.212C305.957 28.0691 305.587 28.5994 305.104 29.196C304.631 29.7926 303.978 30.3134 303.144 30.7585C302.311 31.2036 301.231 31.4261 299.906 31.4261ZM300.843 27.804C302.065 27.804 303.097 27.482 303.94 26.8381C304.792 26.1847 305.436 25.2803 305.871 24.125C306.317 22.9697 306.539 21.625 306.539 20.0909C306.539 18.5758 306.321 17.25 305.886 16.1136C305.45 14.9773 304.811 14.0919 303.968 13.4574C303.125 12.8229 302.084 12.5057 300.843 12.5057C299.565 12.5057 298.499 12.8371 297.647 13.5C296.795 14.1629 296.151 15.0672 295.715 16.2131C295.289 17.3589 295.076 18.6515 295.076 20.0909C295.076 21.5492 295.294 22.8608 295.729 24.0256C296.165 25.1903 296.809 26.1136 297.661 26.7955C298.523 27.4678 299.584 27.804 300.843 27.804ZM11.0028 87.6364C9.26989 87.6364 7.77841 87.4091 6.52841 86.9545C5.28788 86.5 4.27462 85.8987 3.48864 85.1506C2.70265 84.4025 2.11553 83.5833 1.72727 82.6932L5.37784 81.1875C5.63352 81.6042 5.97443 82.0445 6.40057 82.5085C6.83617 82.982 7.4233 83.3845 8.16193 83.7159C8.91004 84.0473 9.87121 84.2131 11.0455 84.2131C12.6553 84.2131 13.9858 83.8201 15.0369 83.0341C16.0881 82.2576 16.6136 81.017 16.6136 79.3125V75.0227H16.3438C16.0881 75.4867 15.7188 76.0028 15.2358 76.571C14.7623 77.1392 14.1089 77.6316 13.2756 78.0483C12.4422 78.465 11.358 78.6733 10.0227 78.6733C8.29924 78.6733 6.74621 78.2708 5.36364 77.4659C3.99053 76.6515 2.90152 75.4536 2.09659 73.8722C1.30114 72.2812 0.903409 70.3258 0.903409 68.0057C0.903409 65.6856 1.2964 63.697 2.08239 62.0398C2.87784 60.3826 3.96686 59.1136 5.34943 58.233C6.73201 57.3428 8.29924 56.8977 10.0511 56.8977C11.4053 56.8977 12.4991 57.125 13.3324 57.5795C14.1657 58.0246 14.8144 58.5455 15.2784 59.142C15.7519 59.7386 16.1165 60.2642 16.3722 60.7188H16.6847V57.1818H20.8466V79.483C20.8466 81.358 20.411 82.8968 19.5398 84.0994C18.6686 85.3021 17.4896 86.1922 16.0028 86.7699C14.5256 87.3475 12.8589 87.6364 11.0028 87.6364ZM10.9602 75.1506C12.1818 75.1506 13.214 74.8665 14.0568 74.2983C14.9091 73.7206 15.553 72.8968 15.9886 71.8267C16.4337 70.7472 16.6562 69.4545 16.6562 67.9489C16.6562 66.4811 16.4384 65.1884 16.0028 64.071C15.5672 62.9536 14.928 62.0824 14.0852 61.4574C13.2424 60.8229 12.2008 60.5057 10.9602 60.5057C9.68182 60.5057 8.61648 60.8371 7.7642 61.5C6.91193 62.1534 6.26799 63.0436 5.83239 64.1705C5.40625 65.2973 5.19318 66.5568 5.19318 67.9489C5.19318 69.3788 5.41098 70.6335 5.84659 71.7131C6.2822 72.7926 6.92614 73.6354 7.77841 74.2415C8.64015 74.8475 9.70076 75.1506 10.9602 75.1506ZM35.946 79.4403C33.7964 79.4403 31.9451 78.9811 30.392 78.0625C28.8485 77.1345 27.6553 75.8324 26.8125 74.1562C25.9792 72.4706 25.5625 70.4962 25.5625 68.233C25.5625 65.9981 25.9792 64.0284 26.8125 62.3239C27.6553 60.6193 28.8295 59.2888 30.3352 58.3324C31.8504 57.3759 33.6212 56.8977 35.6477 56.8977C36.8788 56.8977 38.072 57.1013 39.2273 57.5085C40.3826 57.9157 41.4195 58.5549 42.3381 59.4261C43.2566 60.2973 43.9811 61.429 44.5114 62.821C45.0417 64.2036 45.3068 65.8845 45.3068 67.8636V69.3693H27.9631V66.1875H41.1449C41.1449 65.0701 40.9176 64.0805 40.4631 63.2188C40.0085 62.3475 39.3693 61.661 38.5455 61.1591C37.7311 60.6572 36.7746 60.4062 35.6761 60.4062C34.483 60.4062 33.4413 60.6998 32.5511 61.2869C31.6705 61.8646 30.9886 62.6222 30.5057 63.5597C30.0322 64.4877 29.7955 65.4962 29.7955 66.5852V69.071C29.7955 70.5294 30.0511 71.7699 30.5625 72.7926C31.0833 73.8153 31.8078 74.5966 32.7358 75.1364C33.6638 75.6667 34.7481 75.9318 35.9886 75.9318C36.7936 75.9318 37.5275 75.8182 38.1903 75.5909C38.8532 75.3542 39.4261 75.0038 39.9091 74.5398C40.392 74.0758 40.7614 73.5028 41.017 72.821L45.0369 73.5455C44.715 74.7292 44.1373 75.7661 43.304 76.6562C42.4801 77.5369 41.4432 78.2235 40.1932 78.7159C38.9527 79.1989 37.5369 79.4403 35.946 79.4403ZM54.2663 66.0455V79H50.0192V57.1818H54.0959V60.733H54.3658C54.8677 59.5777 55.6536 58.6496 56.7237 57.9489C57.8033 57.2481 59.1622 56.8977 60.8004 56.8977C62.2872 56.8977 63.5893 57.2102 64.7067 57.8352C65.8241 58.4508 66.6906 59.3693 67.3061 60.5909C67.9216 61.8125 68.2294 63.3229 68.2294 65.1222V79H63.9822V65.6335C63.9822 64.0521 63.5703 62.8163 62.7464 61.9261C61.9226 61.0265 60.791 60.5767 59.3516 60.5767C58.3667 60.5767 57.4908 60.7898 56.7237 61.2159C55.9661 61.642 55.3648 62.267 54.9197 63.0909C54.4841 63.9053 54.2663 64.8902 54.2663 66.0455ZM83.3288 79.4403C81.1792 79.4403 79.3279 78.9811 77.7749 78.0625C76.2313 77.1345 75.0381 75.8324 74.1953 74.1562C73.362 72.4706 72.9453 70.4962 72.9453 68.233C72.9453 65.9981 73.362 64.0284 74.1953 62.3239C75.0381 60.6193 76.2124 59.2888 77.718 58.3324C79.2332 57.3759 81.004 56.8977 83.0305 56.8977C84.2616 56.8977 85.4548 57.1013 86.6101 57.5085C87.7654 57.9157 88.8023 58.5549 89.7209 59.4261C90.6394 60.2973 91.3639 61.429 91.8942 62.821C92.4245 64.2036 92.6896 65.8845 92.6896 67.8636V69.3693H75.3459V66.1875H88.5277C88.5277 65.0701 88.3004 64.0805 87.8459 63.2188C87.3913 62.3475 86.7521 61.661 85.9283 61.1591C85.1139 60.6572 84.1574 60.4062 83.0589 60.4062C81.8658 60.4062 80.8241 60.6998 79.9339 61.2869C79.0533 61.8646 78.3714 62.6222 77.8885 63.5597C77.415 64.4877 77.1783 65.4962 77.1783 66.5852V69.071C77.1783 70.5294 77.4339 71.7699 77.9453 72.7926C78.4661 73.8153 79.1906 74.5966 80.1186 75.1364C81.0466 75.6667 82.1309 75.9318 83.3714 75.9318C84.1764 75.9318 84.9103 75.8182 85.5732 75.5909C86.236 75.3542 86.8089 75.0038 87.2919 74.5398C87.7749 74.0758 88.1442 73.5028 88.3999 72.821L92.4197 73.5455C92.0978 74.7292 91.5201 75.7661 90.6868 76.6562C89.8629 77.5369 88.826 78.2235 87.576 78.7159C86.3355 79.1989 84.9197 79.4403 83.3288 79.4403ZM97.402 79V57.1818H101.507V60.6477H101.734C102.132 59.4735 102.833 58.5502 103.837 57.8778C104.85 57.196 105.996 56.8551 107.274 56.8551C107.539 56.8551 107.852 56.8646 108.212 56.8835C108.581 56.9025 108.87 56.9261 109.078 56.9545V61.017C108.908 60.9697 108.605 60.9176 108.169 60.8608C107.733 60.7945 107.298 60.7614 106.862 60.7614C105.858 60.7614 104.964 60.9744 104.178 61.4006C103.401 61.8172 102.786 62.3996 102.331 63.1477C101.876 63.8864 101.649 64.7292 101.649 65.6761V79H97.402ZM118.908 79.483C117.525 79.483 116.275 79.2273 115.158 78.7159C114.04 78.1951 113.155 77.4422 112.501 76.4574C111.857 75.4725 111.536 74.2652 111.536 72.8352C111.536 71.6042 111.772 70.5909 112.246 69.7955C112.719 69 113.358 68.3703 114.163 67.9062C114.968 67.4422 115.868 67.0919 116.862 66.8551C117.857 66.6184 118.87 66.4384 119.902 66.3153C121.209 66.1638 122.269 66.0407 123.084 65.946C123.898 65.8419 124.49 65.6761 124.859 65.4489C125.229 65.2216 125.413 64.8523 125.413 64.3409V64.2415C125.413 63.0009 125.063 62.0398 124.362 61.358C123.671 60.6761 122.639 60.3352 121.266 60.3352C119.836 60.3352 118.709 60.6525 117.885 61.2869C117.071 61.9119 116.507 62.608 116.195 63.375L112.203 62.4659C112.677 61.1402 113.368 60.0701 114.277 59.2557C115.196 58.4318 116.251 57.8352 117.445 57.4659C118.638 57.0871 119.893 56.8977 121.209 56.8977C122.08 56.8977 123.003 57.0019 123.979 57.2102C124.964 57.4091 125.882 57.7784 126.734 58.3182C127.596 58.858 128.302 59.6297 128.851 60.6335C129.4 61.6278 129.675 62.9205 129.675 64.5114V79H125.527V76.017H125.357C125.082 76.5663 124.67 77.1061 124.121 77.6364C123.571 78.1667 122.866 78.607 122.004 78.9574C121.143 79.3078 120.11 79.483 118.908 79.483ZM119.831 76.0739C121.005 76.0739 122.009 75.8419 122.842 75.3778C123.685 74.9138 124.324 74.3078 124.76 73.5597C125.205 72.8021 125.428 71.9924 125.428 71.1307V68.3182C125.276 68.4697 124.982 68.6117 124.547 68.7443C124.121 68.8674 123.633 68.9763 123.084 69.071C122.535 69.1562 122 69.2367 121.479 69.3125C120.958 69.3788 120.522 69.4356 120.172 69.483C119.348 69.5871 118.595 69.7623 117.913 70.0085C117.241 70.2547 116.701 70.6098 116.294 71.0739C115.896 71.5284 115.697 72.1345 115.697 72.892C115.697 73.9432 116.086 74.7386 116.862 75.2784C117.639 75.8087 118.628 76.0739 119.831 76.0739ZM139.579 49.9091V79H135.332V49.9091H139.579ZM155.879 79V57.1818H160.126V79H155.879ZM158.023 53.8153C157.285 53.8153 156.65 53.5691 156.12 53.0767C155.599 52.5748 155.339 51.9782 155.339 51.2869C155.339 50.5862 155.599 49.9896 156.12 49.4972C156.65 48.9953 157.285 48.7443 158.023 48.7443C158.762 48.7443 159.392 48.9953 159.913 49.4972C160.443 49.9896 160.708 50.5862 160.708 51.2869C160.708 51.9782 160.443 52.5748 159.913 53.0767C159.392 53.5691 158.762 53.8153 158.023 53.8153ZM174.007 79.4261C172.246 79.4261 170.674 78.9763 169.291 78.0767C167.918 77.1676 166.839 75.875 166.053 74.1989C165.276 72.5133 164.888 70.4915 164.888 68.1335C164.888 65.7756 165.281 63.7585 166.067 62.0824C166.862 60.4062 167.951 59.1231 169.334 58.233C170.716 57.3428 172.284 56.8977 174.036 56.8977C175.39 56.8977 176.479 57.125 177.303 57.5795C178.136 58.0246 178.78 58.5455 179.234 59.142C179.698 59.7386 180.058 60.2642 180.314 60.7188H180.57V49.9091H184.817V79H180.669V75.6051H180.314C180.058 76.0691 179.689 76.5994 179.206 77.196C178.732 77.7926 178.079 78.3134 177.246 78.7585C176.412 79.2036 175.333 79.4261 174.007 79.4261ZM174.945 75.804C176.166 75.804 177.198 75.482 178.041 74.8381C178.893 74.1847 179.537 73.2803 179.973 72.125C180.418 70.9697 180.641 69.625 180.641 68.0909C180.641 66.5758 180.423 65.25 179.987 64.1136C179.552 62.9773 178.912 62.0919 178.07 61.4574C177.227 60.8229 176.185 60.5057 174.945 60.5057C173.666 60.5057 172.601 60.8371 171.749 61.5C170.896 62.1629 170.252 63.0672 169.817 64.2131C169.391 65.3589 169.178 66.6515 169.178 68.0909C169.178 69.5492 169.395 70.8608 169.831 72.0256C170.267 73.1903 170.911 74.1136 171.763 74.7955C172.625 75.4678 173.685 75.804 174.945 75.804ZM200.282 79.4403C198.132 79.4403 196.281 78.9811 194.728 78.0625C193.184 77.1345 191.991 75.8324 191.148 74.1562C190.315 72.4706 189.898 70.4962 189.898 68.233C189.898 65.9981 190.315 64.0284 191.148 62.3239C191.991 60.6193 193.165 59.2888 194.671 58.3324C196.186 57.3759 197.957 56.8977 199.984 56.8977C201.215 56.8977 202.408 57.1013 203.563 57.5085C204.719 57.9157 205.755 58.5549 206.674 59.4261C207.593 60.2973 208.317 61.429 208.847 62.821C209.378 64.2036 209.643 65.8845 209.643 67.8636V69.3693H192.299V66.1875H205.481C205.481 65.0701 205.254 64.0805 204.799 63.2188C204.344 62.3475 203.705 61.661 202.881 61.1591C202.067 60.6572 201.111 60.4062 200.012 60.4062C198.819 60.4062 197.777 60.6998 196.887 61.2869C196.006 61.8646 195.325 62.6222 194.842 63.5597C194.368 64.4877 194.131 65.4962 194.131 66.5852V69.071C194.131 70.5294 194.387 71.7699 194.898 72.7926C195.419 73.8153 196.144 74.5966 197.072 75.1364C198 75.6667 199.084 75.9318 200.325 75.9318C201.129 75.9318 201.863 75.8182 202.526 75.5909C203.189 75.3542 203.762 75.0038 204.245 74.5398C204.728 74.0758 205.097 73.5028 205.353 72.821L209.373 73.5455C209.051 74.7292 208.473 75.7661 207.64 76.6562C206.816 77.5369 205.779 78.2235 204.529 78.7159C203.289 79.1989 201.873 79.4403 200.282 79.4403ZM220.705 79.483C219.322 79.483 218.072 79.2273 216.955 78.7159C215.837 78.1951 214.952 77.4422 214.298 76.4574C213.654 75.4725 213.332 74.2652 213.332 72.8352C213.332 71.6042 213.569 70.5909 214.043 69.7955C214.516 69 215.155 68.3703 215.96 67.9062C216.765 67.4422 217.665 67.0919 218.659 66.8551C219.653 66.6184 220.667 66.4384 221.699 66.3153C223.006 66.1638 224.066 66.0407 224.881 65.946C225.695 65.8419 226.287 65.6761 226.656 65.4489C227.026 65.2216 227.21 64.8523 227.21 64.3409V64.2415C227.21 63.0009 226.86 62.0398 226.159 61.358C225.468 60.6761 224.436 60.3352 223.062 60.3352C221.633 60.3352 220.506 60.6525 219.682 61.2869C218.867 61.9119 218.304 62.608 217.991 63.375L214 62.4659C214.473 61.1402 215.165 60.0701 216.074 59.2557C216.992 58.4318 218.048 57.8352 219.241 57.4659C220.435 57.0871 221.689 56.8977 223.006 56.8977C223.877 56.8977 224.8 57.0019 225.776 57.2102C226.76 57.4091 227.679 57.7784 228.531 58.3182C229.393 58.858 230.098 59.6297 230.648 60.6335C231.197 61.6278 231.472 62.9205 231.472 64.5114V79H227.324V76.017H227.153C226.879 76.5663 226.467 77.1061 225.918 77.6364C225.368 78.1667 224.663 78.607 223.801 78.9574C222.939 79.3078 221.907 79.483 220.705 79.483ZM221.628 76.0739C222.802 76.0739 223.806 75.8419 224.639 75.3778C225.482 74.9138 226.121 74.3078 226.557 73.5597C227.002 72.8021 227.224 71.9924 227.224 71.1307V68.3182C227.073 68.4697 226.779 68.6117 226.344 68.7443C225.918 68.8674 225.43 68.9763 224.881 69.071C224.331 69.1562 223.796 69.2367 223.276 69.3125C222.755 69.3788 222.319 69.4356 221.969 69.483C221.145 69.5871 220.392 69.7623 219.71 70.0085C219.038 70.2547 218.498 70.6098 218.091 71.0739C217.693 71.5284 217.494 72.1345 217.494 72.892C217.494 73.9432 217.883 74.7386 218.659 75.2784C219.436 75.8087 220.425 76.0739 221.628 76.0739ZM253.478 62.5085L249.629 63.1903C249.468 62.6979 249.212 62.2292 248.862 61.7841C248.521 61.339 248.057 60.9744 247.469 60.6903C246.882 60.4062 246.148 60.2642 245.268 60.2642C244.065 60.2642 243.061 60.5341 242.256 61.0739C241.451 61.6042 241.049 62.2907 241.049 63.1335C241.049 63.8627 241.319 64.4498 241.859 64.8949C242.398 65.34 243.27 65.7045 244.472 65.9886L247.938 66.7841C249.946 67.2481 251.442 67.9631 252.427 68.929C253.412 69.8949 253.904 71.1496 253.904 72.6932C253.904 74 253.525 75.1648 252.768 76.1875C252.02 77.2008 250.973 77.9962 249.629 78.5739C248.293 79.1515 246.745 79.4403 244.984 79.4403C242.54 79.4403 240.547 78.9195 239.004 77.8778C237.46 76.8267 236.513 75.3352 236.163 73.4034L240.268 72.7784C240.523 73.8485 241.049 74.6581 241.844 75.2074C242.64 75.7472 243.677 76.017 244.955 76.017C246.347 76.017 247.46 75.7282 248.293 75.1506C249.127 74.5634 249.543 73.8485 249.543 73.0057C249.543 72.3239 249.288 71.7509 248.776 71.2869C248.274 70.8229 247.503 70.4725 246.461 70.2358L242.768 69.4261C240.732 68.9621 239.226 68.2235 238.251 67.2102C237.285 66.197 236.802 64.9138 236.802 63.3608C236.802 62.0729 237.162 60.946 237.881 59.9801C238.601 59.0142 239.595 58.2614 240.864 57.7216C242.133 57.1723 243.587 56.8977 245.225 56.8977C247.583 56.8977 249.439 57.4091 250.793 58.4318C252.147 59.4451 253.042 60.804 253.478 62.5085ZM4.65341 127.27C3.87689 127.27 3.20928 126.995 2.65057 126.446C2.09186 125.887 1.8125 125.215 1.8125 124.429C1.8125 123.652 2.09186 122.99 2.65057 122.44C3.20928 121.882 3.87689 121.602 4.65341 121.602C5.42992 121.602 6.09754 121.882 6.65625 122.44C7.21496 122.99 7.49432 123.652 7.49432 124.429C7.49432 124.95 7.36174 125.428 7.09659 125.864C6.84091 126.29 6.5 126.631 6.07386 126.886C5.64773 127.142 5.17424 127.27 4.65341 127.27ZM4.65341 175.27C3.87689 175.27 3.20928 174.995 2.65057 174.446C2.09186 173.887 1.8125 173.215 1.8125 172.429C1.8125 171.652 2.09186 170.99 2.65057 170.44C3.20928 169.882 3.87689 169.602 4.65341 169.602C5.42992 169.602 6.09754 169.882 6.65625 170.44C7.21496 170.99 7.49432 171.652 7.49432 172.429C7.49432 172.95 7.36174 173.428 7.09659 173.864C6.84091 174.29 6.5 174.631 6.07386 174.886C5.64773 175.142 5.17424 175.27 4.65341 175.27ZM4.65341 223.27C3.87689 223.27 3.20928 222.995 2.65057 222.446C2.09186 221.887 1.8125 221.215 1.8125 220.429C1.8125 219.652 2.09186 218.99 2.65057 218.44C3.20928 217.882 3.87689 217.602 4.65341 217.602C5.42992 217.602 6.09754 217.882 6.65625 218.44C7.21496 218.99 7.49432 219.652 7.49432 220.429C7.49432 220.95 7.36174 221.428 7.09659 221.864C6.84091 222.29 6.5 222.631 6.07386 222.886C5.64773 223.142 5.17424 223.27 4.65341 223.27ZM4.65341 271.27C3.87689 271.27 3.20928 270.995 2.65057 270.446C2.09186 269.887 1.8125 269.215 1.8125 268.429C1.8125 267.652 2.09186 266.99 2.65057 266.44C3.20928 265.882 3.87689 265.602 4.65341 265.602C5.42992 265.602 6.09754 265.882 6.65625 266.44C7.21496 266.99 7.49432 267.652 7.49432 268.429C7.49432 268.95 7.36174 269.428 7.09659 269.864C6.84091 270.29 6.5 270.631 6.07386 270.886C5.64773 271.142 5.17424 271.27 4.65341 271.27ZM4.65341 319.27C3.87689 319.27 3.20928 318.995 2.65057 318.446C2.09186 317.887 1.8125 317.215 1.8125 316.429C1.8125 315.652 2.09186 314.99 2.65057 314.44C3.20928 313.882 3.87689 313.602 4.65341 313.602C5.42992 313.602 6.09754 313.882 6.65625 314.44C7.21496 314.99 7.49432 315.652 7.49432 316.429C7.49432 316.95 7.36174 317.428 7.09659 317.864C6.84091 318.29 6.5 318.631 6.07386 318.886C5.64773 319.142 5.17424 319.27 4.65341 319.27Z" fill="black"/>
</svg>
