<svg width="316" height="77" viewBox="0 0 316 77" fill="none" xmlns="http://www.w3.org/2000/svg">
<rect x="54" y="4" width="208" height="73" fill="#D9D9D9"/>
<ellipse cx="262" cy="41" rx="40" ry="36" fill="#D9D9D9"/>
<ellipse cx="54" cy="41" rx="40" ry="36" fill="#D9D9D9"/>
<path d="M75.5866 31.8182L80.647 46.6264H80.8512L85.9116 31.8182H88.8768L82.3338 50H79.1644L72.6214 31.8182H75.5866ZM91.2893 50V36.3636H93.9438V50H91.2893ZM92.6299 34.2596C92.1682 34.2596 91.7717 34.1057 91.4403 33.7979C91.1147 33.4843 90.952 33.1114 90.952 32.6793C90.952 32.2414 91.1147 31.8685 91.4403 31.5607C91.7717 31.247 92.1682 31.0902 92.6299 31.0902C93.0915 31.0902 93.4851 31.247 93.8106 31.5607C94.1421 31.8685 94.3078 32.2414 94.3078 32.6793C94.3078 33.1114 94.1421 33.4843 93.8106 33.7979C93.4851 34.1057 93.0915 34.2596 92.6299 34.2596ZM103.392 50.2752C102.049 50.2752 100.891 49.9882 99.9208 49.4141C98.9561 48.834 98.2103 48.0202 97.6836 46.9727C97.1628 45.9192 96.9023 44.6851 96.9023 43.2706C96.9023 41.8738 97.1628 40.6428 97.6836 39.5774C98.2103 38.5121 98.9442 37.6805 99.8853 37.0827C100.832 36.485 101.939 36.1861 103.206 36.1861C103.975 36.1861 104.721 36.3133 105.443 36.5678C106.165 36.8223 106.813 37.2218 107.387 37.7663C107.961 38.3108 108.414 39.0181 108.745 39.8881C109.077 40.7522 109.243 41.8028 109.243 43.0398V43.9808H98.4027V41.9922H106.641C106.641 41.2938 106.499 40.6753 106.215 40.1367C105.931 39.5922 105.532 39.1631 105.017 38.8494C104.508 38.5357 103.91 38.3789 103.223 38.3789C102.478 38.3789 101.827 38.5624 101.27 38.9293C100.72 39.2904 100.294 39.7638 99.9918 40.3498C99.6959 40.9298 99.5479 41.5601 99.5479 42.2408V43.7944C99.5479 44.7058 99.7077 45.4812 100.027 46.1204C100.353 46.7596 100.806 47.2479 101.386 47.5852C101.966 47.9167 102.643 48.0824 103.419 48.0824C103.922 48.0824 104.38 48.0114 104.795 47.8693C105.209 47.7214 105.567 47.5024 105.869 47.2124C106.171 46.9223 106.402 46.5643 106.561 46.1381L109.074 46.5909C108.873 47.3307 108.512 47.9788 107.991 48.5352C107.476 49.0856 106.828 49.5147 106.047 49.8224C105.271 50.1243 104.386 50.2752 103.392 50.2752ZM115.12 50L111.107 36.3636H113.85L116.522 46.3778H116.656L119.337 36.3636H122.08L124.743 46.3335H124.876L127.531 36.3636H130.274L126.27 50H123.562L120.793 40.1545H120.588L117.819 50H115.12ZM139.409 55.1136V36.3636H142.002V38.5742H142.224C142.378 38.2901 142.6 37.9616 142.89 37.5888C143.18 37.2159 143.582 36.8904 144.097 36.6122C144.612 36.3281 145.292 36.1861 146.139 36.1861C147.24 36.1861 148.222 36.4643 149.086 37.0206C149.95 37.5769 150.628 38.3789 151.119 39.4265C151.616 40.4741 151.865 41.7347 151.865 43.2085C151.865 44.6822 151.619 45.9458 151.128 46.9993C150.637 48.0469 149.962 48.8548 149.104 49.4229C148.246 49.9852 147.266 50.2663 146.165 50.2663C145.337 50.2663 144.659 50.1272 144.132 49.8491C143.612 49.5709 143.203 49.2454 142.907 48.8725C142.611 48.4996 142.384 48.1682 142.224 47.8782H142.064V55.1136H139.409ZM142.011 43.1818C142.011 44.1406 142.15 44.9811 142.428 45.7031C142.706 46.4252 143.109 46.9904 143.635 47.3988C144.162 47.8013 144.807 48.0025 145.571 48.0025C146.364 48.0025 147.027 47.7924 147.559 47.3722C148.092 46.946 148.494 46.369 148.767 45.641C149.045 44.913 149.184 44.0933 149.184 43.1818C149.184 42.2822 149.048 41.4743 148.776 40.7582C148.509 40.042 148.107 39.4768 147.568 39.0625C147.036 38.6482 146.37 38.4411 145.571 38.4411C144.801 38.4411 144.15 38.6393 143.618 39.0359C143.091 39.4324 142.691 39.9858 142.419 40.696C142.147 41.4062 142.011 42.2348 142.011 43.1818ZM154.839 50V36.3636H157.405V38.5298H157.547C157.795 37.7959 158.233 37.2189 158.861 36.7987C159.494 36.3725 160.21 36.1594 161.009 36.1594C161.175 36.1594 161.37 36.1654 161.595 36.1772C161.826 36.189 162.007 36.2038 162.137 36.2216V38.7607C162.03 38.7311 161.841 38.6985 161.569 38.663C161.296 38.6216 161.024 38.6009 160.752 38.6009C160.124 38.6009 159.565 38.734 159.074 39.0004C158.589 39.2608 158.204 39.6248 157.92 40.0923C157.636 40.554 157.494 41.0807 157.494 41.6726V50H154.839ZM169.69 50.2752C168.411 50.2752 167.295 49.9822 166.343 49.3963C165.39 48.8104 164.65 47.9906 164.123 46.9371C163.596 45.8836 163.333 44.6526 163.333 43.244C163.333 41.8294 163.596 40.5924 164.123 39.533C164.65 38.4736 165.39 37.6509 166.343 37.065C167.295 36.479 168.411 36.1861 169.69 36.1861C170.968 36.1861 172.084 36.479 173.036 37.065C173.989 37.6509 174.729 38.4736 175.256 39.533C175.783 40.5924 176.046 41.8294 176.046 43.244C176.046 44.6526 175.783 45.8836 175.256 46.9371C174.729 47.9906 173.989 48.8104 173.036 49.3963C172.084 49.9822 170.968 50.2752 169.69 50.2752ZM169.698 48.0469C170.527 48.0469 171.214 47.8279 171.758 47.3899C172.303 46.9519 172.705 46.369 172.965 45.641C173.232 44.913 173.365 44.111 173.365 43.2351C173.365 42.3651 173.232 41.5661 172.965 40.8381C172.705 40.1042 172.303 39.5153 171.758 39.0714C171.214 38.6275 170.527 38.4055 169.698 38.4055C168.864 38.4055 168.171 38.6275 167.621 39.0714C167.076 39.5153 166.671 40.1042 166.405 40.8381C166.144 41.5661 166.014 42.3651 166.014 43.2351C166.014 44.111 166.144 44.913 166.405 45.641C166.671 46.369 167.076 46.9519 167.621 47.3899C168.171 47.8279 168.864 48.0469 169.698 48.0469ZM184.114 50.2663C183.013 50.2663 182.03 49.9852 181.166 49.4229C180.308 48.8548 179.633 48.0469 179.142 46.9993C178.657 45.9458 178.414 44.6822 178.414 43.2085C178.414 41.7347 178.66 40.4741 179.151 39.4265C179.648 38.3789 180.329 37.5769 181.193 37.0206C182.057 36.4643 183.037 36.1861 184.132 36.1861C184.978 36.1861 185.659 36.3281 186.173 36.6122C186.694 36.8904 187.097 37.2159 187.381 37.5888C187.671 37.9616 187.896 38.2901 188.056 38.5742H188.215V31.8182H190.87V50H188.278V47.8782H188.056C187.896 48.1682 187.665 48.4996 187.363 48.8725C187.067 49.2454 186.659 49.5709 186.138 49.8491C185.617 50.1272 184.942 50.2663 184.114 50.2663ZM184.7 48.0025C185.463 48.0025 186.108 47.8013 186.635 47.3988C187.168 46.9904 187.57 46.4252 187.843 45.7031C188.121 44.9811 188.26 44.1406 188.26 43.1818C188.26 42.2348 188.124 41.4062 187.851 40.696C187.579 39.9858 187.18 39.4324 186.653 39.0359C186.126 38.6393 185.475 38.4411 184.7 38.4411C183.901 38.4411 183.235 38.6482 182.702 39.0625C182.17 39.4768 181.767 40.042 181.495 40.7582C181.229 41.4743 181.095 42.2822 181.095 43.1818C181.095 44.0933 181.231 44.913 181.504 45.641C181.776 46.369 182.178 46.946 182.711 47.3722C183.25 47.7924 183.913 48.0025 184.7 48.0025ZM203.297 44.3448V36.3636H205.96V50H203.35V47.6385H203.208C202.894 48.3665 202.391 48.9731 201.699 49.4585C201.012 49.9379 200.157 50.1776 199.133 50.1776C198.257 50.1776 197.482 49.9852 196.807 49.6005C196.138 49.2099 195.611 48.6328 195.227 47.8693C194.848 47.1058 194.658 46.1618 194.658 45.0373V36.3636H197.313V44.7177C197.313 45.6469 197.57 46.3867 198.085 46.9371C198.6 47.4876 199.269 47.7628 200.092 47.7628C200.589 47.7628 201.083 47.6385 201.574 47.3899C202.071 47.1413 202.483 46.7655 202.808 46.2624C203.14 45.7594 203.303 45.1201 203.297 44.3448ZM215.271 50.2752C213.951 50.2752 212.814 49.9763 211.862 49.3786C210.915 48.7749 210.187 47.9433 209.678 46.8839C209.169 45.8245 208.914 44.6112 208.914 43.244C208.914 41.859 209.174 40.6368 209.695 39.5774C210.216 38.5121 210.95 37.6805 211.897 37.0827C212.844 36.485 213.96 36.1861 215.244 36.1861C216.28 36.1861 217.203 36.3784 218.014 36.7631C218.825 37.1419 219.479 37.6746 219.976 38.3612C220.479 39.0477 220.778 39.8497 220.873 40.767H218.289C218.147 40.1278 217.821 39.5774 217.312 39.1158C216.809 38.6541 216.135 38.4233 215.288 38.4233C214.549 38.4233 213.9 38.6186 213.344 39.0092C212.794 39.3939 212.365 39.9444 212.057 40.6605C211.749 41.3707 211.595 42.2112 211.595 43.1818C211.595 44.1761 211.746 45.0343 212.048 45.7564C212.35 46.4785 212.776 47.0378 213.326 47.4343C213.883 47.8308 214.537 48.0291 215.288 48.0291C215.791 48.0291 216.247 47.9374 216.656 47.7539C217.07 47.5645 217.416 47.2952 217.694 46.946C217.978 46.5968 218.177 46.1766 218.289 45.6854H220.873C220.778 46.5672 220.491 47.3544 220.011 48.0469C219.532 48.7393 218.89 49.2839 218.085 49.6804C217.286 50.0769 216.348 50.2752 215.271 50.2752ZM230.077 36.3636V38.4943H222.628V36.3636H230.077ZM224.626 33.0966H227.28V45.9961C227.28 46.511 227.357 46.8987 227.511 47.1591C227.665 47.4136 227.863 47.5882 228.106 47.6829C228.354 47.7717 228.624 47.8161 228.914 47.8161C229.127 47.8161 229.313 47.8013 229.473 47.7717C229.633 47.7421 229.757 47.7184 229.846 47.7006L230.325 49.8935C230.171 49.9527 229.952 50.0118 229.668 50.071C229.384 50.1361 229.029 50.1716 228.603 50.1776C227.905 50.1894 227.253 50.0651 226.65 49.8047C226.046 49.5443 225.558 49.1418 225.185 48.5973C224.812 48.0528 224.626 47.3692 224.626 46.5465V33.0966ZM243.012 39.6928L240.606 40.119C240.505 39.8112 240.345 39.5182 240.126 39.2401C239.913 38.9619 239.623 38.734 239.256 38.5565C238.889 38.3789 238.431 38.2901 237.88 38.2901C237.129 38.2901 236.501 38.4588 235.998 38.7962C235.495 39.1276 235.244 39.5567 235.244 40.0835C235.244 40.5392 235.412 40.9061 235.75 41.1843C236.087 41.4625 236.631 41.6903 237.383 41.8679L239.549 42.3651C240.804 42.6551 241.739 43.1019 242.355 43.7056C242.97 44.3093 243.278 45.0935 243.278 46.0582C243.278 46.875 243.041 47.603 242.568 48.2422C242.1 48.8755 241.446 49.3726 240.606 49.7337C239.771 50.0947 238.804 50.2752 237.703 50.2752C236.176 50.2752 234.93 49.9497 233.965 49.2987C233 48.6417 232.409 47.7095 232.19 46.5021L234.755 46.1115C234.915 46.7803 235.244 47.2863 235.741 47.6296C236.238 47.967 236.886 48.1357 237.685 48.1357C238.555 48.1357 239.25 47.9551 239.771 47.5941C240.292 47.2272 240.552 46.7803 240.552 46.2536C240.552 45.8274 240.393 45.4693 240.073 45.1793C239.759 44.8893 239.277 44.6703 238.626 44.5224L236.318 44.0163C235.045 43.7263 234.104 43.2647 233.495 42.6314C232.891 41.9981 232.589 41.1961 232.589 40.2255C232.589 39.4206 232.814 38.7163 233.264 38.1126C233.714 37.5089 234.335 37.0384 235.128 36.701C235.921 36.3577 236.83 36.1861 237.854 36.1861C239.327 36.1861 240.487 36.5057 241.334 37.1449C242.18 37.7782 242.739 38.6275 243.012 39.6928Z" fill="black"/>
</svg>
