<svg width="43" height="25" viewBox="0 0 43 25" fill="none" xmlns="http://www.w3.org/2000/svg">
<path d="M0.997514 19V0.818181H12.3967V3.17969H3.74077V8.71946H11.8018V11.0721H3.74077V16.6385H12.5032V19H0.997514ZM18.5024 10.9034V19H15.8479V5.36364H18.3959V7.5831H18.5645C18.8782 6.86103 19.3695 6.28101 20.0383 5.84304C20.713 5.40507 21.5623 5.18608 22.5862 5.18608C23.5154 5.18608 24.3292 5.38139 25.0276 5.77202C25.726 6.15672 26.2675 6.73082 26.6523 7.49432C27.037 8.25781 27.2293 9.20182 27.2293 10.3263V19H24.5748V10.646C24.5748 9.65755 24.3174 8.88518 23.8025 8.32884C23.2876 7.76657 22.5803 7.48544 21.6807 7.48544C21.0651 7.48544 20.5177 7.61861 20.0383 7.88494C19.5648 8.15128 19.189 8.5419 18.9108 9.05682C18.6385 9.56581 18.5024 10.1813 18.5024 10.9034ZM36.5067 24.3977C35.4236 24.3977 34.4914 24.2557 33.7101 23.9716C32.9348 23.6875 32.3015 23.3117 31.8103 22.8441C31.319 22.3765 30.9521 21.8646 30.7094 21.3082L32.991 20.3672C33.1508 20.6276 33.3639 20.9028 33.6302 21.1928C33.9025 21.4888 34.2694 21.7403 34.7311 21.9474C35.1987 22.1546 35.7994 22.2582 36.5333 22.2582C37.5394 22.2582 38.371 22.0125 39.028 21.5213C39.6849 21.036 40.0134 20.2607 40.0134 19.1953V16.5142H39.8447C39.6849 16.8042 39.4541 17.1268 39.1523 17.4819C38.8563 17.837 38.4479 18.1448 37.9271 18.4052C37.4063 18.6656 36.7286 18.7958 35.8941 18.7958C34.8169 18.7958 33.8463 18.5443 32.9822 18.0412C32.124 17.5322 31.4433 16.7835 30.9403 15.7951C30.4431 14.8008 30.1945 13.5786 30.1945 12.1286C30.1945 10.6785 30.4401 9.43561 30.9314 8.39986C31.4285 7.36411 32.1092 6.57102 32.9733 6.0206C33.8374 5.46425 34.8169 5.18608 35.9118 5.18608C36.7582 5.18608 37.4418 5.32812 37.9626 5.61222C38.4835 5.89039 38.8889 6.21591 39.1789 6.58878C39.4748 6.96165 39.7027 7.29013 39.8625 7.57422H40.0578V5.36364H42.659V19.3018C42.659 20.4737 42.3867 21.4355 41.8422 22.1871C41.2977 22.9388 40.5609 23.4951 39.6317 23.8562C38.7084 24.2172 37.6667 24.3977 36.5067 24.3977ZM36.48 16.5941C37.2435 16.5941 37.8886 16.4165 38.4154 16.0614C38.9481 15.7004 39.3505 15.1855 39.6228 14.5167C39.901 13.842 40.04 13.0341 40.04 12.093C40.04 11.1757 39.9039 10.3678 39.6317 9.66939C39.3594 8.971 38.9599 8.42649 38.4331 8.03587C37.9064 7.63932 37.2554 7.44105 36.48 7.44105C35.681 7.44105 35.0152 7.6482 34.4825 8.0625C33.9498 8.47088 33.5474 9.02722 33.2751 9.73153C33.0088 10.4358 32.8756 11.223 32.8756 12.093C32.8756 12.9867 33.0117 13.771 33.284 14.4457C33.5563 15.1204 33.9587 15.6471 34.4914 16.0259C35.03 16.4047 35.6929 16.5941 36.48 16.5941Z" fill="white"/>
</svg>
