<svg width="107" height="20" viewBox="0 0 107 20" fill="none" xmlns="http://www.w3.org/2000/svg">
<path d="M16.0987 6.73082H13.3288C13.2223 6.13897 13.024 5.61813 12.734 5.16832C12.444 4.71851 12.0889 4.33677 11.6687 4.02308C11.2485 3.7094 10.7779 3.47266 10.2571 3.31285C9.74219 3.15305 9.19472 3.07315 8.6147 3.07315C7.56712 3.07315 6.62902 3.33653 5.80043 3.86328C4.97775 4.39003 4.3267 5.16241 3.8473 6.1804C3.37382 7.19839 3.13707 8.44129 3.13707 9.90909C3.13707 11.3887 3.37382 12.6375 3.8473 13.6555C4.3267 14.6735 4.98071 15.4429 5.8093 15.9638C6.6379 16.4846 7.57008 16.745 8.60582 16.745C9.17992 16.745 9.72443 16.6681 10.2393 16.5142C10.7602 16.3544 11.2307 16.1206 11.6509 15.8129C12.0711 15.5051 12.4263 15.1293 12.7163 14.6854C13.0122 14.2356 13.2164 13.7206 13.3288 13.1406L16.0987 13.1495C15.9508 14.0432 15.6637 14.8659 15.2376 15.6175C14.8174 16.3633 14.2758 17.0084 13.6129 17.5529C12.956 18.0915 12.2043 18.5088 11.358 18.8047C10.5116 19.1006 9.58831 19.2486 8.58807 19.2486C7.01373 19.2486 5.61103 18.8757 4.37997 18.13C3.14891 17.3783 2.17827 16.3041 1.46804 14.9073C0.763731 13.5105 0.411577 11.8445 0.411577 9.90909C0.411577 7.9678 0.76669 6.30173 1.47692 4.91087C2.18714 3.51409 3.15779 2.44283 4.38885 1.69709C5.61991 0.94543 7.01965 0.569602 8.58807 0.569602C9.55279 0.569602 10.4524 0.708688 11.2869 0.986861C12.1274 1.25911 12.882 1.66158 13.5508 2.19425C14.2196 2.721 14.773 3.36612 15.2109 4.12962C15.6489 4.88719 15.9448 5.75426 16.0987 6.73082ZM24.9122 19.2752C23.6338 19.2752 22.5181 18.9822 21.5653 18.3963C20.6124 17.8104 19.8725 16.9906 19.3458 15.9371C18.819 14.8836 18.5557 13.6526 18.5557 12.244C18.5557 10.8294 18.819 9.59245 19.3458 8.53303C19.8725 7.4736 20.6124 6.65092 21.5653 6.06499C22.5181 5.47905 23.6338 5.18608 24.9122 5.18608C26.1906 5.18608 27.3063 5.47905 28.2591 6.06499C29.212 6.65092 29.9519 7.4736 30.4786 8.53303C31.0054 9.59245 31.2687 10.8294 31.2687 12.244C31.2687 13.6526 31.0054 14.8836 30.4786 15.9371C29.9519 16.9906 29.212 17.8104 28.2591 18.3963C27.3063 18.9822 26.1906 19.2752 24.9122 19.2752ZM24.9211 17.0469C25.7497 17.0469 26.4362 16.8279 26.9807 16.3899C27.5252 15.9519 27.9277 15.369 28.1881 14.641C28.4545 13.913 28.5876 13.111 28.5876 12.2351C28.5876 11.3651 28.4545 10.5661 28.1881 9.83807C27.9277 9.10417 27.5252 8.51527 26.9807 8.07138C26.4362 7.62749 25.7497 7.40554 24.9211 7.40554C24.0866 7.40554 23.3941 7.62749 22.8437 8.07138C22.2992 8.51527 21.8937 9.10417 21.6274 9.83807C21.367 10.5661 21.2368 11.3651 21.2368 12.2351C21.2368 13.111 21.367 13.913 21.6274 14.641C21.8937 15.369 22.2992 15.9519 22.8437 16.3899C23.3941 16.8279 24.0866 17.0469 24.9211 17.0469ZM36.8862 10.9034V19H34.2317V5.36364H36.7797V7.5831H36.9483C37.262 6.86103 37.7533 6.28101 38.4221 5.84304C39.0968 5.40507 39.9461 5.18608 40.97 5.18608C41.8992 5.18608 42.713 5.38139 43.4114 5.77202C44.1098 6.15672 44.6513 6.73082 45.036 7.49432C45.4208 8.25781 45.6131 9.20182 45.6131 10.3263V19H42.9586V10.646C42.9586 9.65755 42.7012 8.88518 42.1863 8.32884C41.6713 7.76657 40.9641 7.48544 40.0645 7.48544C39.4489 7.48544 38.9015 7.61861 38.4221 7.88494C37.9486 8.15128 37.5727 8.5419 37.2946 9.05682C37.0223 9.56581 36.8862 10.1813 36.8862 10.9034ZM55.5385 5.36364V7.49432H48.09V5.36364H55.5385ZM50.0875 2.09659H52.742V14.9961C52.742 15.511 52.819 15.8987 52.9728 16.1591C53.1267 16.4136 53.325 16.5882 53.5676 16.6829C53.8162 16.7717 54.0855 16.8161 54.3755 16.8161C54.5886 16.8161 54.775 16.8013 54.9348 16.7717C55.0946 16.7421 55.2189 16.7184 55.3077 16.7006L55.7871 18.8935C55.6332 18.9527 55.4142 19.0118 55.1301 19.071C54.8461 19.1361 54.4909 19.1716 54.0648 19.1776C53.3664 19.1894 52.7154 19.0651 52.1117 18.8047C51.508 18.5443 51.0197 18.1418 50.6468 17.5973C50.274 17.0528 50.0875 16.3692 50.0875 15.5465V2.09659ZM62.4433 19.3018C61.5792 19.3018 60.7979 19.142 60.0995 18.8224C59.4011 18.4969 58.8477 18.0264 58.4394 17.4109C58.0369 16.7953 57.8357 16.0407 57.8357 15.147C57.8357 14.3776 57.9836 13.7443 58.2796 13.2472C58.5755 12.75 58.975 12.3564 59.4781 12.0664C59.9811 11.7764 60.5434 11.5574 61.1649 11.4094C61.7863 11.2615 62.4196 11.149 63.0647 11.0721C63.8815 10.9774 64.5444 10.9004 65.0534 10.8413C65.5624 10.7762 65.9323 10.6726 66.1631 10.5305C66.3939 10.3885 66.5093 10.1577 66.5093 9.83807V9.77592C66.5093 9.00059 66.2903 8.39986 65.8524 7.97372C65.4203 7.54758 64.7752 7.33452 63.917 7.33452C63.0233 7.33452 62.319 7.53279 61.8041 7.92933C61.2951 8.31996 60.9429 8.75497 60.7476 9.23438L58.2529 8.66619C58.5489 7.83759 58.9809 7.1688 59.5491 6.6598C60.1232 6.14489 60.7831 5.77202 61.5289 5.54119C62.2746 5.30445 63.0588 5.18608 63.8815 5.18608C64.426 5.18608 65.003 5.25118 65.6127 5.38139C66.2282 5.50568 66.8023 5.73651 67.335 6.07386C67.8735 6.41122 68.3145 6.89358 68.6578 7.52095C69.001 8.1424 69.1727 8.95028 69.1727 9.9446V19H66.5803V17.1357H66.4738C66.3022 17.4789 66.0447 17.8163 65.7014 18.1477C65.3582 18.4792 64.9172 18.7544 64.3786 18.9734C63.8401 19.1924 63.1949 19.3018 62.4433 19.3018ZM63.0203 17.1712C63.7542 17.1712 64.3816 17.0262 64.9024 16.7362C65.4292 16.4461 65.8287 16.0674 66.1009 15.5998C66.3791 15.1263 66.5182 14.6203 66.5182 14.0817V12.3239C66.4235 12.4186 66.24 12.5073 65.9678 12.5902C65.7014 12.6671 65.3966 12.7352 65.0534 12.7944C64.7101 12.8477 64.3757 12.898 64.0502 12.9453C63.7246 12.9867 63.4524 13.0223 63.2334 13.0518C62.7185 13.117 62.248 13.2264 61.8218 13.3803C61.4016 13.5342 61.0642 13.7562 60.8097 14.0462C60.5612 14.3303 60.4369 14.709 60.4369 15.1825C60.4369 15.8395 60.6795 16.3366 61.1649 16.674C61.6502 17.0054 62.2687 17.1712 63.0203 17.1712ZM78.4522 19.2752C77.1324 19.2752 75.996 18.9763 75.0431 18.3786C74.0962 17.7749 73.3682 16.9433 72.8592 15.8839C72.3502 14.8245 72.0957 13.6112 72.0957 12.244C72.0957 10.859 72.3561 9.63684 72.877 8.57741C73.3978 7.51207 74.1317 6.68052 75.0787 6.08274C76.0256 5.48497 77.1413 5.18608 78.4256 5.18608C79.4614 5.18608 80.3846 5.37843 81.1955 5.76314C82.0063 6.14193 82.6603 6.6746 83.1575 7.36115C83.6606 8.0477 83.9595 8.84967 84.0542 9.76705H81.4707C81.3287 9.12784 81.0031 8.57741 80.4941 8.11577C79.9911 7.65412 79.3163 7.4233 78.47 7.4233C77.7302 7.4233 77.0821 7.61861 76.5257 8.00923C75.9753 8.39394 75.5462 8.94437 75.2385 9.66051C74.9307 10.3707 74.7768 11.2112 74.7768 12.1818C74.7768 13.1761 74.9277 14.0343 75.2296 14.7564C75.5314 15.4785 75.9576 16.0378 76.508 16.4343C77.0643 16.8308 77.7183 17.0291 78.47 17.0291C78.9731 17.0291 79.4288 16.9374 79.8372 16.7539C80.2515 16.5645 80.5977 16.2952 80.8759 15.946C81.16 15.5968 81.3583 15.1766 81.4707 14.6854H84.0542C83.9595 15.5672 83.6724 16.3544 83.193 17.0469C82.7136 17.7393 82.0714 18.2839 81.2665 18.6804C80.4675 19.0769 79.5294 19.2752 78.4522 19.2752ZM93.2583 5.36364V7.49432H85.8097V5.36364H93.2583ZM87.8073 2.09659H90.4617V14.9961C90.4617 15.511 90.5387 15.8987 90.6926 16.1591C90.8464 16.4136 91.0447 16.5882 91.2874 16.6829C91.536 16.7717 91.8052 16.8161 92.0953 16.8161C92.3083 16.8161 92.4948 16.8013 92.6546 16.7717C92.8144 16.7421 92.9387 16.7184 93.0274 16.7006L93.5068 18.8935C93.353 18.9527 93.134 19.0118 92.8499 19.071C92.5658 19.1361 92.2107 19.1716 91.7845 19.1776C91.0861 19.1894 90.4351 19.0651 89.8314 18.8047C89.2277 18.5443 88.7394 18.1418 88.3666 17.5973C87.9937 17.0528 87.8073 16.3692 87.8073 15.5465V2.09659ZM106.193 8.69283L103.787 9.11896C103.687 8.8112 103.527 8.51823 103.308 8.24006C103.095 7.96188 102.805 7.73402 102.438 7.55646C102.071 7.37891 101.612 7.29013 101.062 7.29013C100.31 7.29013 99.6829 7.45881 99.1798 7.79616C98.6767 8.1276 98.4252 8.5567 98.4252 9.08345C98.4252 9.53918 98.5938 9.90613 98.9312 10.1843C99.2686 10.4625 99.8131 10.6903 100.565 10.8679L102.731 11.3651C103.986 11.6551 104.921 12.1019 105.536 12.7056C106.152 13.3093 106.46 14.0935 106.46 15.0582C106.46 15.875 106.223 16.603 105.749 17.2422C105.282 17.8755 104.628 18.3726 103.787 18.7337C102.953 19.0947 101.985 19.2752 100.884 19.2752C99.3573 19.2752 98.1115 18.9497 97.1468 18.2987C96.182 17.6417 95.5902 16.7095 95.3712 15.5021L97.9369 15.1115C98.0967 15.7803 98.4252 16.2863 98.9223 16.6296C99.4195 16.967 100.068 17.1357 100.867 17.1357C101.737 17.1357 102.432 16.9551 102.953 16.5941C103.474 16.2272 103.734 15.7803 103.734 15.2536C103.734 14.8274 103.574 14.4693 103.255 14.1793C102.941 13.8893 102.459 13.6703 101.808 13.5224L99.4994 13.0163C98.2269 12.7263 97.2858 12.2647 96.6762 11.6314C96.0725 10.9981 95.7707 10.1961 95.7707 9.2255C95.7707 8.42057 95.9956 7.71626 96.4454 7.11257C96.8952 6.50888 97.5167 6.03835 98.3097 5.70099C99.1028 5.35772 100.011 5.18608 101.035 5.18608C102.509 5.18608 103.669 5.50568 104.515 6.14489C105.362 6.77817 105.921 7.62749 106.193 8.69283Z" fill="white"/>
</svg>
