<?xml version="1.0" standalone="no"?>
<!DOCTYPE svg PUBLIC "-//W3C//DTD SVG 20010904//EN"
 "http://www.w3.org/TR/2001/REC-SVG-20010904/DTD/svg10.dtd">
<svg version="1.0" xmlns="http://www.w3.org/2000/svg"
 width="355.000000pt" height="355.000000pt" viewBox="0 0 355.000000 355.000000"
 preserveAspectRatio="xMidYMid meet">

<g transform="translate(0.000000,355.000000) scale(0.100000,-0.100000)"
fill="#000000" stroke="none">
<path d="M1766 3263 c-16 -32 -66 -89 -142 -162 l-117 -112 35 -37 c19 -20 83
-91 143 -157 60 -66 111 -118 114 -117 7 5 111 232 111 243 0 29 -21 -5 -64
-102 -27 -60 -53 -108 -57 -107 -12 5 -249 269 -249 278 0 8 163 161 166 157
1 -1 -17 -57 -39 -125 -43 -129 -42 -151 5 -139 13 4 69 52 126 107 l102 101
-2 72 -1 72 -6 -68 -6 -68 -107 -105 c-58 -57 -111 -104 -117 -104 -18 0 -12
34 25 142 32 92 94 231 113 251 4 4 43 2 86 -3 l80 -10 117 -117 c114 -114
134 -139 103 -127 -8 4 -15 2 -15 -4 0 -5 7 -12 15 -16 21 -8 19 -29 -4 -50
-18 -16 -33 -17 -138 -11 l-118 7 -37 36 c-21 20 -41 32 -45 29 -4 -4 11 -25
32 -46 l40 -39 127 -6 c127 -7 128 -7 153 18 18 18 25 36 25 64 0 36 -8 46
-122 159 -121 119 -124 121 -178 127 -30 4 -72 9 -92 12 -36 5 -38 4 -62 -43z"/>
<path d="M1781 3179 c-12 -39 -20 -73 -17 -76 6 -6 6 -5 36 81 23 68 23 66 12
66 -4 0 -18 -32 -31 -71z"/>
<path d="M1935 3150 c21 -24 40 -26 31 -5 -3 9 0 15 8 15 8 0 17 -7 20 -16 4
-9 9 -15 11 -12 3 3 3 13 -1 22 -4 11 -18 16 -47 16 -39 0 -40 0 -22 -20z"/>
<path d="M1265 2951 c-55 -25 -109 -87 -125 -145 -11 -40 -11 -58 0 -100 7
-28 14 -96 17 -152 l4 -100 135 -135 134 -134 65 65 65 64 0 83 0 83 98 0 99
0 18 33 c11 21 16 43 12 58 -8 29 -131 186 -195 250 -26 25 -58 61 -71 79 -49
66 -171 90 -256 51z m76 -23 l2 -23 4 23 c3 17 11 22 37 22 40 0 48 -7 35 -31
-7 -13 -6 -19 1 -19 6 0 13 7 16 15 8 20 23 19 46 -2 17 -15 17 -17 2 -35 -10
-10 -12 -18 -6 -18 6 0 14 5 17 10 12 19 26 10 41 -25 7 -19 14 -39 14 -45 0
-19 -90 -11 -117 10 -32 25 -99 27 -132 4 -60 -42 -58 -138 2 -174 19 -12 50
-20 78 -20 33 0 51 -6 64 -20 17 -19 17 -20 -9 -30 -40 -15 -67 -12 -82 8 -13
16 -13 16 -14 0 0 -23 -40 -24 -40 -2 0 13 -3 14 -14 5 -19 -16 -46 -3 -46 21
0 17 -3 18 -14 9 -12 -10 -17 -8 -25 8 -7 13 -8 22 -1 26 17 11 11 22 -12 21
-33 -1 -38 41 -6 47 20 4 20 4 -4 6 -25 1 -28 5 -28 37 0 34 1 35 30 29 36 -8
40 2 5 15 -22 8 -24 12 -13 35 13 29 16 30 46 9 28 -19 29 -7 1 22 l-20 22 29
21 30 21 16 -23 17 -22 -6 27 c-5 27 4 36 38 37 11 1 17 -7 18 -21z m85 -139
c15 -14 35 -19 81 -19 53 0 62 3 65 19 4 28 20 14 116 -108 81 -103 99 -137
65 -124 -15 6 -16 4 -5 -9 7 -8 10 -23 6 -32 -5 -14 -26 -16 -150 -16 -137 0
-144 1 -159 23 -15 21 -14 23 15 36 16 8 30 18 30 22 0 3 -17 19 -37 35 -29
22 -46 27 -78 25 -29 -2 -48 4 -68 19 -35 28 -34 39 6 78 26 25 36 29 45 20 7
-7 12 -8 12 -2 0 6 -9 19 -20 29 -16 14 -18 20 -8 27 18 11 59 0 84 -23z
m-100 0 c7 -12 -42 -67 -51 -57 -8 8 23 68 35 68 5 0 12 -5 16 -11z m-69 -233
c19 -9 57 -16 92 -16 55 0 62 -2 83 -30 18 -25 29 -30 65 -30 l43 0 0 -78 0
-78 -55 -54 -55 -55 -129 130 -128 130 4 68 5 68 22 -19 c11 -11 35 -27 53
-36z"/>
<path d="M1495 2710 c21 -24 40 -26 31 -5 -6 17 9 21 19 5 3 -5 11 -10 17 -10
7 0 6 6 -2 15 -7 8 -28 15 -48 15 -34 0 -35 0 -17 -20z"/>
<path d="M2144 2866 c-17 -8 -57 -43 -89 -80 -69 -78 -88 -91 -169 -120 -58
-21 -94 -56 -80 -78 3 -4 75 -8 160 -8 86 0 154 -3 152 -7 -73 -142 -82 -252
-33 -369 l17 -39 36 41 c20 23 97 108 170 188 l134 146 -4 114 -3 115 -35 37
c-19 20 -53 45 -75 55 -47 22 -136 24 -181 5z m186 -30 c75 -39 90 -71 90
-190 l0 -102 -150 -164 c-83 -91 -155 -166 -159 -168 -12 -4 -28 49 -37 114
-8 62 16 163 52 217 19 29 31 37 54 37 17 0 30 5 30 10 0 6 -35 10 -84 10
l-83 0 -6 38 c-13 78 35 171 105 205 50 25 134 22 188 -7z m-308 -193 l4 -43
-103 0 c-85 0 -101 2 -97 14 3 8 30 22 59 31 29 10 70 28 92 40 24 16 39 20
40 12 1 -7 3 -31 5 -54z"/>
<path d="M2136 2762 c-15 -18 -15 -20 2 -35 25 -23 49 -21 62 4 23 41 -31 67
-64 31z m46 -34 c-9 -9 -15 -9 -24 0 -9 9 -7 12 12 12 19 0 21 -3 12 -12z"/>
<path d="M1975 2671 c-6 -11 9 -23 19 -14 9 9 7 23 -3 23 -6 0 -12 -4 -16 -9z"/>
<path d="M1708 2403 c7 -3 16 -2 19 1 4 3 -2 6 -13 5 -11 0 -14 -3 -6 -6z"/>
<path d="M1750 2404 c0 -3 9 -17 20 -31 14 -17 20 -21 20 -10 0 8 -8 18 -17
22 -17 7 -16 8 2 15 19 8 19 9 -2 9 -13 1 -23 -2 -23 -5z"/>
<path d="M1806 2402 c7 -4 14 -18 17 -32 l4 -25 2 27 c0 14 7 29 14 31 6 3 -1
6 -18 6 -16 0 -25 -3 -19 -7z"/>
<path d="M870 2088 l0 -267 75 44 c42 25 80 45 84 45 5 0 40 -18 79 -40 38
-22 72 -40 76 -40 3 0 6 27 6 61 l0 61 33 -21 c68 -45 190 -102 274 -128 81
-25 102 -27 263 -27 141 -1 189 3 245 18 92 25 228 83 288 124 l47 33 0 -66 0
-65 53 30 c116 69 105 68 185 21 39 -22 75 -41 81 -41 8 0 11 77 9 261 l-3
262 -159 -1 c-153 -2 -159 -2 -174 -24 -31 -47 -135 -139 -202 -179 -103 -61
-204 -91 -331 -97 -137 -6 -228 14 -352 75 -74 38 -109 63 -181 135 l-90 88
-153 3 -153 2 0 -267z m340 197 c103 -132 295 -234 482 -255 81 -9 190 -1 271
21 121 32 259 119 349 219 l55 60 132 0 133 0 -32 -57 c-175 -311 -512 -496
-875 -480 -341 15 -616 185 -804 500 l-23 37 139 0 138 -1 35 -44z m-305 -15
c8 -16 16 -51 17 -77 1 -44 2 -45 5 -10 7 64 23 30 23 -49 0 -43 4 -74 10 -74
6 0 10 26 10 58 0 80 19 47 22 -38 l2 -65 3 58 c5 75 23 64 23 -14 0 -33 4
-59 10 -59 6 0 10 18 10 41 0 24 4 38 10 34 6 -3 10 -15 10 -26 0 -12 5 -19
13 -16 6 2 33 -14 60 -35 46 -39 47 -41 47 -95 l0 -54 -75 41 -75 42 -68 -39
c-37 -21 -70 -39 -74 -41 -5 -2 -8 98 -8 222 0 124 2 226 5 226 2 0 11 -13 20
-30z m1745 -196 l0 -225 -57 32 c-32 18 -65 37 -74 43 -13 7 -33 0 -85 -31
l-69 -41 -3 54 c-3 54 -2 55 45 98 26 24 51 39 54 34 4 -5 9 2 13 17 9 35 23
22 29 -25 3 -24 4 -18 5 22 2 72 22 89 22 19 0 -28 5 -51 10 -51 6 0 10 30 10
69 0 89 18 103 23 19 l3 -63 2 75 c2 79 22 139 22 68 0 -21 5 -38 10 -38 6 0
10 25 10 56 0 49 12 94 25 94 3 0 5 -102 5 -226z"/>
<path d="M2410 2293 c0 -9 62 -53 73 -53 17 0 4 17 -28 38 -37 24 -45 26 -45
15z"/>
<path d="M1087 2264 c-21 -14 -35 -30 -31 -35 4 -6 14 -3 26 8 20 18 20 17 14
-4 -6 -19 -4 -23 16 -23 22 -1 22 -1 4 -15 -34 -26 -8 -29 29 -4 32 22 33 24
12 27 -43 6 -46 9 -37 41 5 17 8 31 7 31 -1 0 -19 -11 -40 -26z"/>
<path d="M2405 2230 c-4 -6 -15 -8 -26 -5 -31 10 -22 -8 17 -35 36 -24 37 -24
50 -5 8 11 13 26 12 35 -4 18 -43 26 -53 10z m35 -18 c0 -13 -12 -22 -22 -16
-10 6 -1 24 13 24 5 0 9 -4 9 -8z"/>
<path d="M2345 2179 c8 -31 -9 -47 -30 -29 -27 23 -23 -8 5 -35 29 -28 54 -29
31 -2 -17 21 13 45 34 27 28 -23 15 6 -16 36 l-31 29 7 -26z"/>
<path d="M1173 2163 c-42 -14 -58 -33 -28 -33 9 0 20 -12 26 -27 l11 -28 19
49 c11 27 18 50 17 51 -2 1 -22 -4 -45 -12z m17 -23 c0 -5 -5 -10 -11 -10 -5
0 -7 5 -4 10 3 6 8 10 11 10 2 0 4 -4 4 -10z"/>
<path d="M1229 2099 l-22 -31 21 -21 c12 -11 25 -17 29 -13 4 4 0 12 -10 17
-23 14 -11 31 16 23 18 -5 20 -4 10 7 -19 20 -15 31 6 19 31 -16 38 -11 12 10
-31 26 -36 25 -62 -11z"/>
<path d="M1305 2120 c3 -5 8 -10 11 -10 2 0 4 5 4 10 0 6 -5 10 -11 10 -5 0
-7 -4 -4 -10z"/>
<path d="M2260 2123 c0 -5 14 -24 30 -43 34 -40 41 -24 8 20 -21 29 -38 39
-38 23z"/>
<path d="M1301 2050 c-12 -21 -17 -41 -12 -44 5 -3 11 1 15 9 6 17 15 19 35 6
12 -8 12 -12 2 -24 -7 -9 -8 -18 -2 -21 5 -3 19 10 30 30 23 39 21 55 -3 35
-20 -16 -39 -4 -33 20 9 35 -10 29 -32 -11z"/>
<path d="M2190 2073 c0 -5 13 -23 28 -41 l27 -33 23 21 c12 11 22 25 22 30 0
16 -34 29 -52 19 -11 -6 -19 -6 -23 1 -7 12 -25 14 -25 3z m75 -22 c7 -12 -12
-24 -25 -16 -11 7 -4 25 10 25 5 0 11 -4 15 -9z"/>
<path d="M2164 2038 c4 -13 10 -31 13 -40 10 -31 -24 -20 -37 12 -7 17 -16 30
-21 30 -12 0 -11 -11 6 -40 18 -32 18 -40 0 -40 -8 0 -22 14 -30 31 -23 44
-32 27 -10 -20 l17 -39 47 19 c25 11 49 23 53 27 9 9 -21 82 -34 82 -6 0 -7
-10 -4 -22z"/>
<path d="M1400 2031 c0 -6 5 -11 11 -11 6 0 9 -8 6 -17 -17 -54 -19 -63 -10
-63 5 0 15 16 21 35 9 23 18 32 27 28 8 -3 15 -1 15 5 0 5 -8 12 -17 15 -10 2
-26 8 -35 12 -11 4 -18 3 -18 -4z"/>
<path d="M1483 1968 c-37 -38 -42 -52 -14 -43 11 3 26 -1 35 -11 24 -23 28
-14 19 40 l-8 47 -32 -33z m27 -18 c0 -5 -4 -10 -10 -10 -5 0 -10 5 -10 10 0
6 5 10 10 10 6 0 10 -4 10 -10z"/>
<path d="M1991 1989 c-15 -6 -21 -14 -17 -25 3 -9 9 -27 12 -40 3 -13 11 -24
16 -24 6 0 7 11 3 27 -11 45 -11 47 8 51 12 2 21 -6 28 -27 6 -17 15 -31 21
-31 6 0 7 7 4 16 -3 9 -9 27 -12 40 -7 25 -23 29 -63 13z"/>
<path d="M1566 1964 c-3 -9 -6 -30 -6 -47 1 -31 1 -32 13 -9 l13 23 12 -25 c6
-15 16 -26 22 -26 6 0 5 9 -2 25 -9 21 -8 28 7 45 22 24 8 26 -24 4 -22 -16
-23 -16 -16 5 7 24 -10 29 -19 5z"/>
<path d="M1936 1938 c7 -47 11 -55 20 -45 9 9 -6 87 -17 87 -5 0 -6 -18 -3
-42z"/>
<path d="M1709 1925 c-4 -22 -4 -43 -2 -47 2 -5 28 -8 57 -8 47 0 54 3 60 23
9 34 7 67 -4 67 -5 0 -10 -16 -10 -35 0 -28 -4 -35 -19 -35 -17 0 -19 5 -14
35 4 23 2 35 -6 35 -6 0 -11 -16 -11 -35 0 -28 -4 -35 -19 -35 -16 0 -20 8
-23 38 l-3 37 -6 -40z"/>
<path d="M1850 1938 c0 -52 10 -66 38 -59 36 10 39 54 5 59 -13 2 -23 8 -23
13 0 5 -4 9 -10 9 -5 0 -10 -10 -10 -22z m50 -34 c0 -9 -5 -14 -12 -12 -18 6
-21 28 -4 28 9 0 16 -7 16 -16z"/>
<path d="M1624 2265 c-4 -9 -4 -19 0 -22 3 -4 6 1 6 10 0 10 6 17 14 17 25 0
29 -21 9 -43 -37 -40 -37 -47 -1 -46 25 1 27 3 10 6 l-24 5 22 23 c12 13 20
31 18 42 -4 23 -46 30 -54 8z"/>
<path d="M1708 2256 c-16 -37 3 -79 35 -74 19 3 22 9 22 48 0 39 -3 45 -22 48
-16 2 -26 -4 -35 -22z m47 -25 c0 -39 -19 -52 -34 -23 -14 26 -3 64 18 60 11
-2 16 -14 16 -37z"/>
<path d="M1800 2265 c-9 -10 -9 -15 -1 -15 6 0 11 5 11 10 0 6 7 10 15 10 24
0 18 -31 -12 -62 l-27 -28 40 1 c23 1 30 3 16 6 l-22 4 20 29 c11 15 17 35 14
44 -8 20 -38 21 -54 1z"/>
<path d="M1885 2270 c-3 -5 -2 -10 4 -10 5 0 12 -19 14 -42 3 -41 4 -41 5 10
2 48 -8 66 -23 42z"/>
<path d="M156 1701 c-13 -21 27 -277 62 -396 l18 -60 1539 0 1539 0 22 77 c26
91 52 238 56 323 l3 60 -1617 3 c-896 1 -1619 -2 -1622 -7z m411 -135 c32 -37
30 -56 -6 -56 -20 0 -30 6 -34 20 -7 25 -62 28 -89 3 -23 -21 -25 -99 -2 -131
22 -31 69 -30 90 3 19 29 64 35 64 9 0 -9 -15 -31 -34 -50 -78 -78 -196 -17
-196 101 0 49 26 102 59 121 42 23 119 13 148 -20z m113 -16 l0 -50 49 0 50 0
3 48 c3 43 5 47 28 47 l25 0 3 -127 3 -128 -31 0 c-30 0 -30 0 -30 55 l0 55
-50 0 -50 0 0 -55 c0 -52 -1 -55 -25 -55 l-25 0 0 130 0 130 25 0 c23 0 25 -3
25 -50z m398 23 c3 -22 0 -23 -67 -23 -69 0 -71 -1 -71 -25 0 -23 4 -24 63
-27 56 -3 62 -5 65 -25 3 -22 0 -23 -62 -23 l-66 0 0 -35 0 -35 70 0 c63 0 70
-2 70 -20 0 -19 -7 -20 -95 -20 l-95 0 0 130 0 131 93 -3 c87 -3 92 -4 95 -25z
m232 2 c0 -24 -2 -25 -65 -25 -63 0 -65 -1 -65 -25 0 -24 3 -25 60 -25 57 0
60 -1 60 -25 0 -24 -3 -25 -60 -25 l-60 0 0 -35 0 -35 70 0 c63 0 70 -2 70
-20 0 -19 -7 -20 -100 -20 l-100 0 0 123 c0 68 3 127 7 130 3 4 46 7 95 7 87
0 88 0 88 -25z m215 0 c14 -13 25 -31 25 -40 0 -21 -46 -20 -58 2 -12 20 -70
22 -82 3 -13 -21 5 -36 58 -50 68 -16 92 -35 92 -69 0 -43 -9 -60 -41 -76 -69
-36 -168 -2 -169 58 0 24 42 22 58 -4 17 -27 95 -24 100 3 4 19 -17 31 -86 48
-55 14 -78 48 -66 93 12 38 44 57 102 57 32 0 49 -6 67 -25z m263 -2 c3 -22 0
-23 -67 -23 -69 0 -71 -1 -71 -25 0 -24 2 -25 65 -25 63 0 65 -1 65 -25 0 -24
-2 -25 -65 -25 l-65 0 0 -35 0 -35 75 0 c68 0 75 -2 75 -20 0 -19 -7 -20 -100
-20 l-100 0 0 130 0 131 93 -3 c87 -3 92 -4 95 -25z m178 -9 c14 -20 14 -26
-1 -53 -8 -17 -20 -31 -26 -31 -6 0 0 -14 12 -31 22 -31 23 -31 30 -10 5 11
15 21 24 21 18 0 18 1 4 -39 -10 -28 -9 -35 12 -57 l22 -24 -25 0 c-15 0 -28
5 -30 11 -3 8 -14 7 -35 -5 -40 -20 -72 -20 -101 0 -32 22 -30 83 3 114 19 18
22 27 14 42 -38 70 54 129 97 62z m275 7 c16 -16 29 -34 29 -40 0 -19 -49 -12
-70 9 -23 23 -39 25 -65 6 -30 -22 -11 -43 49 -56 91 -19 120 -79 65 -135 -15
-16 -33 -20 -80 -20 -54 0 -63 3 -85 29 -28 32 -27 50 4 54 13 2 25 -4 32 -17
14 -27 87 -30 97 -5 8 22 -18 41 -69 49 -52 9 -78 36 -78 79 0 75 112 106 171
47z m259 4 c0 -22 -4 -25 -35 -25 l-35 0 0 -105 0 -105 -30 0 -30 0 0 105 0
105 -40 0 c-32 0 -40 4 -40 18 0 10 3 22 7 25 3 4 51 7 105 7 98 0 98 0 98
-25z m90 -85 l5 -105 40 0 40 0 5 105 c5 104 5 105 30 105 l25 0 0 -108 c0
-107 -1 -109 -28 -133 -42 -36 -109 -34 -148 5 -28 29 -29 32 -29 129 0 54 3
102 7 106 4 4 16 6 28 4 18 -3 20 -12 25 -108z m380 85 c0 -24 -2 -25 -65 -25
-63 0 -65 -1 -65 -25 0 -24 3 -25 55 -25 52 0 55 -1 55 -25 0 -24 -3 -25 -55
-25 l-55 0 0 -55 c0 -52 -1 -55 -25 -55 l-25 0 0 130 0 130 90 0 c89 0 90 0
90 -25z m218 -2 c3 -22 0 -23 -62 -23 -64 0 -66 -1 -66 -25 0 -24 3 -25 55
-25 52 0 55 -1 55 -25 0 -24 -3 -25 -55 -25 l-55 0 0 -55 c0 -54 0 -55 -30
-55 l-30 0 0 123 c0 68 3 127 7 131 4 4 46 5 93 4 80 -3 85 -4 88 -25z"/>
<path d="M1901 1561 c-20 -13 -6 -63 17 -59 11 2 17 13 17 32 0 32 -12 41 -34
27z"/>
<path d="M1872 1438 c-7 -7 -12 -21 -12 -33 0 -42 47 -59 84 -32 17 12 16 15
-9 45 -29 34 -44 39 -63 20z"/>
<path d="M1145 761 c-54 -21 -101 -44 -103 -49 -2 -6 9 -14 23 -18 18 -4 32
-18 41 -40 15 -36 23 -41 41 -23 8 8 17 7 34 -5 13 -9 29 -16 35 -16 10 0 54
147 54 180 0 16 -18 12 -125 -29z m115 22 c-1 -16 -39 -155 -44 -160 -3 -3
-22 7 -42 22 l-37 29 47 43 c26 24 45 43 41 43 -14 0 -116 -62 -111 -67 3 -3
13 0 23 8 14 11 13 9 -2 -13 -14 -18 -21 -22 -23 -12 -2 8 -14 17 -28 20 -13
3 -24 10 -24 14 0 6 172 77 193 79 4 1 7 -2 7 -6z"/>
<path d="M1300 680 c0 -52 16 -70 22 -23 4 39 28 42 28 4 0 -17 5 -31 11 -31
6 0 9 16 7 38 -3 31 -7 37 -25 36 -13 0 -23 5 -23 13 0 7 -4 13 -10 13 -5 0
-10 -22 -10 -50z"/>
<path d="M1520 680 c0 -27 5 -50 10 -50 6 0 10 14 10 30 0 20 5 30 15 30 10 0
15 -10 15 -30 0 -16 5 -30 11 -30 6 0 9 16 7 38 -3 31 -7 37 -25 36 -13 0 -23
5 -23 13 0 7 -4 13 -10 13 -5 0 -10 -22 -10 -50z"/>
<path d="M1690 680 c0 -27 5 -50 10 -50 6 0 10 23 10 50 0 28 -4 50 -10 50 -5
0 -10 -22 -10 -50z"/>
<path d="M1390 670 c0 -22 5 -40 10 -40 6 0 10 18 10 40 0 22 -4 40 -10 40 -5
0 -10 -18 -10 -40z"/>
<path d="M1431 687 c-11 -28 4 -57 29 -57 11 0 20 -5 20 -11 0 -7 -10 -9 -25
-5 -15 4 -25 2 -25 -4 0 -7 14 -10 33 -8 31 3 32 4 35 54 3 51 3 51 -28 52
-23 0 -33 -5 -39 -21z m47 -19 c-2 -13 -7 -23 -13 -23 -5 0 -11 10 -13 23 -2
15 2 22 13 22 11 0 15 -7 13 -22z"/>
<path d="M1730 671 c0 -23 5 -41 10 -41 6 0 10 15 10 34 0 19 -4 38 -10 41 -6
4 -10 -10 -10 -34z"/>
<path d="M1764 694 c3 -9 9 -27 12 -40 9 -35 31 -29 44 12 15 43 5 58 -11 18
l-11 -29 -10 28 c-5 15 -14 27 -20 27 -6 0 -7 -7 -4 -16z"/>
<path d="M1850 690 c-15 -28 4 -60 35 -60 14 0 25 5 25 11 0 6 -9 8 -20 4 -11
-4 -20 -2 -20 4 0 6 11 11 25 11 27 0 33 18 13 38 -18 18 -46 14 -58 -8z"/>
<path d="M1930 669 c0 -22 5 -39 10 -39 6 0 10 11 10 25 0 14 7 28 15 31 23 9
18 22 -10 22 -22 0 -25 -5 -25 -39z"/>
<path d="M2080 700 c-6 -4 -10 -20 -8 -36 2 -21 9 -30 26 -32 12 -2 22 -10 22
-18 0 -8 5 -14 10 -14 6 0 10 24 10 53 0 48 -2 52 -24 53 -13 1 -29 -2 -36 -6z
m38 -32 c-2 -13 -7 -23 -13 -23 -5 0 -11 10 -13 23 -2 15 2 22 13 22 11 0 15
-7 13 -22z"/>
<path d="M2162 673 c3 -35 6 -38 36 -41 31 -3 32 -2 32 37 0 49 -17 55 -22 9
-2 -18 -7 -33 -13 -33 -5 0 -11 15 -13 33 -2 17 -8 32 -13 32 -6 0 -9 -17 -7
-37z"/>
<path d="M2262 701 c-8 -5 -12 -21 -10 -37 2 -22 9 -30 27 -32 13 -2 28 2 35
9 8 9 6 10 -11 6 -13 -3 -26 -1 -29 4 -3 5 6 9 20 9 28 0 34 18 14 38 -14 14
-28 15 -46 3z m35 -17 c-3 -3 -12 -4 -19 -1 -8 3 -5 6 6 6 11 1 17 -2 13 -5z"/>
<path d="M2341 696 c-21 -25 -6 -66 24 -66 13 0 27 5 31 11 4 7 0 9 -14 5 -11
-4 -23 -2 -27 4 -4 6 4 10 20 10 22 0 26 4 23 23 -4 27 -39 35 -57 13z m36
-12 c-3 -3 -12 -4 -19 -1 -8 3 -5 6 6 6 11 1 17 -2 13 -5z"/>
<path d="M2420 669 c0 -21 5 -39 10 -39 6 0 10 14 10 30 0 20 5 30 15 30 10 0
15 -10 15 -30 0 -16 5 -30 11 -30 6 0 9 16 7 38 -3 34 -6 37 -35 39 -32 1 -33
0 -33 -38z"/>
<path d="M1618 613 c12 -2 32 -2 45 0 12 2 2 4 -23 4 -25 0 -35 -2 -22 -4z"/>
<path d="M1998 613 c12 -2 32 -2 45 0 12 2 2 4 -23 4 -25 0 -35 -2 -22 -4z"/>
</g>
</svg>
